<svg width="400" height="400" viewBox="0 0 200 200" xmlns="http://www.w3.org/2000/svg">
  <defs>
    <radialGradient id="skinGrad" cx="50%" cy="50%" r="50%" fx="50%" fy="40%">
      <stop offset="0%" stop-color="#E2A684" />
      <stop offset="100%" stop-color="#B37E5E" />
    </radialGradient>
    <linearGradient id="hoodieGrad" x1="0%" y1="0%" x2="0%" y2="100%">
      <stop offset="0%" stop-color="#34495E" />
      <stop offset="100%" stop-color="#212F3C" />
    </linearGradient>
    <filter id="softShadow" x="-20%" y="-20%" width="140%" height="140%">
      <feGaussianBlur in="SourceAlpha" stdDeviation="2" />
      <feOffset dx="1" dy="2" result="offsetblur" />
      <feComponentTransfer><feFuncA type="linear" slope="0.3"/></feComponentTransfer>
      <feMerge> <feMergeNode /> <feMergeNode in="SourceGraphic" /> </feMerge>
    </filter>
  </defs>

  <circle cx="100" cy="100" r="95" fill="#F4F7F9" stroke="#D5DBDB" stroke-width="1"/>

  <path d="M40 190 Q40 145 100 145 Q160 145 160 190 Z" fill="url(#hoodieGrad)" filter="url(#softShadow)" />
  <path d="M70 145 Q100 160 130 145" fill="none" stroke="#2C3E50" stroke-width="3" opacity="0.5" />
  <circle cx="85" cy="165" r="1.5" fill="#BDC3C7" /> <circle cx="115" cy="165" r="1.5" fill="#BDC3C7" /> <path d="M85 130 Q100 150 115 130 L115 145 Q100 155 85 145 Z" fill="#B37E5E" />

  <path d="M68 85 Q68 45 100 45 Q132 45 132 85 Q132 135 100 135 Q68 135 68 85" fill="url(#skinGrad)" filter="url(#softShadow)" />

  <path d="M66 78 Q66 38 100 35 Q134 38 134 78 Q125 50 100 50 Q75 50 66 78" fill="#1A1A1A" />
  <path d="M68 60 Q100 40 132 60" fill="none" stroke="#2C2C2C" stroke-width="1" opacity="0.3" />

  <rect x="62" y="75" width="10" height="25" rx="5" fill="#212F3C" filter="url(#softShadow)" /> <rect x="128" y="75" width="10" height="25" rx="5" fill="#212F3C" filter="url(#softShadow)" /> <path d="M65 75 Q65 35 100 35 Q135 35 135 75" fill="none" stroke="#212F3C" stroke-width="4" stroke-linecap="round" />

  <g>
    <circle cx="86" cy="85" r="4" fill="#FFFFFF" opacity="0.9" />
    <circle cx="86" cy="85" r="2.5" fill="#3E2723" />
    <circle cx="87" cy="84" r="0.8" fill="#FFFFFF" /> <circle cx="114" cy="85" r="4" fill="#FFFFFF" opacity="0.9" />
    <circle cx="114" cy="85" r="2.5" fill="#3E2723" />
    <circle cx="115" cy="84" r="0.8" fill="#FFFFFF" /> </g>

  <path d="M78 74 Q85 70 92 73" stroke="#1A1A1A" stroke-width="2.5" stroke-linecap="round" fill="none" />
  <path d="M108 73 Q115 70 122 74" stroke="#1A1A1A" stroke-width="2.5" stroke-linecap="round" fill="none" />

  <path d="M100 85 L98 105 Q100 108 102 105 Z" fill="#96644A" opacity="0.4" />

  <path d="M92 118 Q100 122 108 118" stroke="#8E5A44" stroke-width="1.5" fill="none" />
  <path d="M93 113 Q100 115 107 113" stroke="#1A1A1A" stroke-width="1.2" opacity="0.6" fill="none" /> <path d="M88 132 Q100 136 112 132" stroke="#1A1A1A" stroke-width="2" opacity="0.5" fill="none" /> </svg>