<?xml version="1.0" encoding="UTF-8"?>
<svg id="Layer_1" data-name="Layer 1" xmlns="http://www.w3.org/2000/svg" xmlns:xlink="http://www.w3.org/1999/xlink" viewBox="0 0 500 500">
  <defs>
    <style>
      .cls-1 {
        fill: #2ebf9d;
      }

      .cls-1, .cls-2, .cls-3, .cls-4, .cls-5, .cls-6, .cls-7, .cls-8, .cls-9, .cls-10 {
        stroke-width: 0px;
      }

      .cls-2 {
        fill: url(#linear-gradient);
      }

      .cls-3 {
        fill: url(#Dégradé_sans_nom_102-3);
      }

      .cls-4 {
        fill: url(#Dégradé_sans_nom_102-2);
      }

      .cls-5 {
        fill: url(#Dégradé_sans_nom_25-2);
      }

      .cls-6 {
        fill: #000;
      }

      .cls-7 {
        fill: #232323;
      }

      .cls-8 {
        fill: url(#Dégradé_sans_nom_102);
      }

      .cls-9 {
        fill: url(#Dégradé_sans_nom_25);
      }

      .cls-10 {
        fill: url(#Dégradé_sans_nom_23);
      }
    </style>
    <linearGradient id="Dégradé_sans_nom_102" data-name="Dégradé sans nom 102" x1="221.05" y1="241.4" x2="437.9" y2="241.4" gradientUnits="userSpaceOnUse">
      <stop offset="0" stop-color="#b2e755"/>
      <stop offset="1" stop-color="#2ebf9d"/>
    </linearGradient>
    <linearGradient id="Dégradé_sans_nom_102-2" data-name="Dégradé sans nom 102" x1="345.33" y1="274.95" x2="500" y2="274.95" xlink:href="#Dégradé_sans_nom_102"/>
    <linearGradient id="linear-gradient" x1="111.4" y1="359.35" x2="197.36" y2="257.18" gradientUnits="userSpaceOnUse">
      <stop offset="0" stop-color="#b2e755"/>
      <stop offset="1" stop-color="#26bda1"/>
    </linearGradient>
    <linearGradient id="Dégradé_sans_nom_25" data-name="Dégradé sans nom 25" x1="158.84" y1="278.16" x2="152.4" y2="321.66" gradientUnits="userSpaceOnUse">
      <stop offset="0" stop-color="#001f00"/>
      <stop offset=".14" stop-color="rgba(0, 31, 0, .8)" stop-opacity=".8"/>
      <stop offset=".64" stop-color="rgba(0, 31, 0, .21)" stop-opacity=".21"/>
      <stop offset="1" stop-color="#001f00" stop-opacity="0"/>
    </linearGradient>
    <linearGradient id="Dégradé_sans_nom_23" data-name="Dégradé sans nom 23" x1="244.7" y1="176.57" x2="197.16" y2="104.95" gradientUnits="userSpaceOnUse">
      <stop offset="0" stop-color="#60ce82"/>
      <stop offset="1" stop-color="#62cf80"/>
    </linearGradient>
    <linearGradient id="Dégradé_sans_nom_25-2" data-name="Dégradé sans nom 25" x1="251.96" y1="202.94" x2="229.73" y2="149.44" xlink:href="#Dégradé_sans_nom_25"/>
    <linearGradient id="Dégradé_sans_nom_102-3" data-name="Dégradé sans nom 102" x1="0" y1="168.99" x2="370.85" y2="168.99" xlink:href="#Dégradé_sans_nom_102"/>
  </defs>
  <g>
    <path class="cls-8" d="M221.05,338.36c18.31-19.89,78.81-81.86,96-100.51,27.79-30.15,55.66-60.22,83.29-90.5,3.58-3.92,5.49-4.78,9.37-.26,8.33,9.7,17.18,18.96,26.09,28.14,2.86,2.95,2.72,4.71-.02,7.64-33.8,36.05-111,116.13-144.69,152.27-1.82,1.96-3.62,3.66-6.59,3.65-20.36-.05-40.71-.42-63.45-.42Z"/>
    <path class="cls-4" d="M345.33,338.71c12.54-13.64,67.15-69.63,78.25-81.7,13.1-14.24,26.37-28.33,39.24-42.77,3.79-4.25,5.92-4.05,9.55.11,8.08,9.25,16.49,18.24,25.16,26.94,3.44,3.46,3.18,5.4-.07,8.78-13.03,13.58-69.28,71.38-82.09,85.18-1.82,1.96-3.62,3.52-6.62,3.51-20.36-.09-40.71-.05-63.41-.05Z"/>
    <g>
      <path class="cls-2" d="M221.12,277.17c-.85.85-1.73,1.74-2.65,2.66-20.59,20.7-38.68,39.11-59.45,59.54,0,0-.71.03-1.76.04-1.19.02-2.81.03-4.32-.02-.19,0-.38-.01-.54-.02-20.33-.95-42.26-.59-64.75,0,10.2-10.14,19.04-18.98,28.77-28.67,1.83-1.82,3.67-3.66,5.51-5.49,1.39.15,2.78.29,4.19.4,3.6.27,7.24.42,10.91.42,20.06,0,39.12-4.32,56.29-12.07.04,0,.06-.02.09-.04,9.52-4.3,18.45-9.65,26.65-15.91.36-.27.72-.55,1.07-.83Z"/>
      <path class="cls-9" d="M221.12,277.17c-.85.85-1.88,1.61-2.65,2.66-20.59,20.7-38.68,39.11-59.45,59.54-1.2.02-4.27.07-6.08.02-.19,0-.38-.01-.54-.02-20.33-.95-42.26-.59-64.75,0,10.2-10.14,19.04-18.98,28.77-28.67,1.83-1.82,3.67-3.66,5.51-5.49,1.39.15,2.78.29,4.19.4,3.6.27,7.24.42,10.91.42,20.06,0,39.12-4.32,56.29-12.07.04,0,.06-.02.09-.04,9.52-4.3,18.45-9.65,26.65-15.91.36-.27.72-.55,1.07-.83Z"/>
      <path class="cls-10" d="M273.62,158.21h0c-.72.8-1.45,1.6-2.18,2.39-14.41,15.74-29.33,31.03-45.22,45.41-.08.07-.15.14-.23.21-.12.11-.24.22-.37.34-4.76,4.3-9.59,8.49-14.52,12.51,10.77-13.96,17.11-31.07,17.11-49.59s-6.87-37.04-18.47-51.28c3.66,3.84,5.71,4.19,9.35-.06,7.5-8.74,15.27-17.28,23.45-25.39,2.63-2.61,3.75-4.72,3.33-6.98,15.63,20.4,25.64,45.32,27.76,72.45Z"/>
      <path class="cls-5" d="M273.62,158.21h0c-.72.8-1.45,1.6-2.18,2.39-14.41,15.74-29.33,31.03-45.22,45.41-.08.07-.15.14-.23.21-.12.11-.24.22-.37.34-4.76,4.3-9.59,8.49-14.52,12.51,10.77-13.96,17.11-31.07,17.11-49.59s-6.87-37.04-18.47-51.28c3.66,3.84,5.71,4.19,9.35-.06,7.5-8.74,15.27-17.28,23.45-25.39,2.63-2.61,3.75-4.72,3.33-6.98,15.63,20.4,25.64,45.32,27.76,72.45Z"/>
      <path class="cls-3" d="M368.93,122.98c-.44-.49-.87-.99-1.31-1.48-8.05-9.08-16.01-18.24-23.51-27.77-3.69-4.68-5.63-3.91-9.38-.15-20.57,20.64-60.61,64.11-61.1,64.65h0c-.44.48-.87.97-1.31,1.45-.29.32-.58.63-.87.95-2.24,2.44-4.48,4.87-6.74,7.28-5.2,5.16-10.37,10.3-15.55,15.46-5.92,5.88-11.73,11.65-17.5,17.38-.59.47-1.23,1.08-1.94,1.79-1.16,1.16-2.33,2.35-3.49,3.51l-.11.11s-.08.07-.12.1c-.12.11-.24.22-.37.34-4.76,4.3-9.59,8.49-14.52,12.51-16.49,21.37-43.39,35.33-73.77,35.42h-.3c-35.16,0-65.67-18.54-80.88-45.72-.02-.02-.02-.04-.02-.06-6.57-11.73-10.28-25.07-10.28-39.24,0-42.87,34.04-78.31,78.25-84.16.59-.09,1.18-.15,1.77-.23,3.66-.42,7.39-.63,11.15-.63.78,0,1.58,0,2.36.02,2.87.08,5.73.27,8.55.59,25.18,2.8,47.23,15.17,61.81,33.13,3.66,3.84,5.71,4.19,9.35-.06,7.5-8.74,15.27-17.28,23.45-25.39,2.63-2.61,3.75-4.72,3.33-6.98-10.81-14.13-24.31-26.08-39.75-35.1-20.29-11.88-43.9-18.69-69.1-18.69C61.35,31.97,0,93.32,0,169c0,36.64,14.39,69.94,37.82,94.53.09.09.17.19.25.27,21.68,22.62,51.03,37.81,83.85,41.4,1.39.15,2.78.29,4.19.4,3.6.27,7.24.42,10.91.42,20.06,0,39.12-4.32,56.29-12.07.04,0,.06-.02.09-.04,9.52-4.3,18.45-9.65,26.65-15.91.36-.27.72-.55,1.07-.83,8.99-6.99,17.07-15.08,24.06-24.06,4.85-4.82,9.73-9.61,14.58-14.37,1.05-.63,1.98-1.48,2.91-2.42,13.23-12.98,26.46-26.23,39.69-39.56.08-.08.13-.13.17-.19,22.01-22.14,44.01-44.45,66.03-65.98,2.88-2.8,3.09-4.55.36-7.61Z"/>
    </g>
  </g>
  <g>
    <path class="cls-7" d="M15.48,373c3.36-.51,7.34-.89,11.71-.89,7.91,0,13.55,1.84,17.28,5.32,3.8,3.48,6.01,8.42,6.01,15.32s-2.15,12.66-6.14,16.59c-3.99,3.99-10.57,6.14-18.86,6.14-3.93,0-7.22-.19-10-.51v-41.97ZM20.99,410.73c1.39.25,3.42.32,5.57.32,11.77,0,18.17-6.58,18.17-18.1.06-10.07-5.63-16.46-17.28-16.46-2.85,0-5,.25-6.46.57v33.68Z"/>
    <path class="cls-7" d="M63.15,372.43v42.67h-5.51v-42.67h5.51Z"/>
    <path class="cls-7" d="M105.25,413.2c-2.47.89-7.34,2.34-13.1,2.34-6.46,0-11.77-1.65-15.95-5.63-3.67-3.55-5.95-9.24-5.95-15.89.06-12.72,8.8-22.03,23.11-22.03,4.94,0,8.8,1.08,10.64,1.96l-1.33,4.49c-2.28-1.01-5.13-1.84-9.43-1.84-10.38,0-17.16,6.46-17.16,17.16s6.52,17.22,16.46,17.22c3.61,0,6.08-.51,7.34-1.14v-12.72h-8.67v-4.43h14.05v20.51Z"/>
    <path class="cls-7" d="M119.18,372.43v42.67h-5.51v-42.67h5.51Z"/>
    <path class="cls-7" d="M136.9,377.12h-12.98v-4.68h31.59v4.68h-13.04v37.98h-5.57v-37.98Z"/>
    <path class="cls-7" d="M162.42,401.68l-4.43,13.42h-5.7l14.5-42.67h6.65l14.56,42.67h-5.89l-4.56-13.42h-15.13ZM176.41,397.37l-4.18-12.28c-.95-2.79-1.58-5.32-2.22-7.79h-.13c-.63,2.53-1.33,5.13-2.15,7.72l-4.18,12.34h12.85Z"/>
    <path class="cls-7" d="M194.26,372.43h5.51v38.05h18.23v4.62h-23.74v-42.67Z"/>
    <path class="cls-7" d="M271.3,415.1v-26.27l-8.61,17.09h-5.95l-8.67-17.09v26.27h-8.8v-45.07h8.67l11.77,24.37,11.71-24.37h8.67v45.07h-8.8Z"/>
    <path class="cls-7" d="M290.61,415.1v-45.07h8.8v45.07h-8.8Z"/>
    <path class="cls-7" d="M332.46,415.1l-8.74-15.7-8.67,15.7h-10.07l13.99-23.11-13.1-21.97h10l7.85,14.56,7.91-14.56h9.94l-13.1,21.97,14.05,23.11h-10.07Z"/>
    <path class="cls-7" d="M388.42,415.1l-2.66-7.98h-16.02l-2.72,7.98h-9.18l16.4-45.07h6.9l16.46,45.07h-9.18ZM377.91,383.32l-5.7,16.4h11.2l-5.51-16.4Z"/>
    <path class="cls-7" d="M427.1,415.1l-8.8-17.98h-6.33v17.98h-8.8v-45.07h17.66c9.18,0,14.62,6.27,14.62,13.8,0,6.33-3.86,10.26-8.23,11.84l10.07,19.43h-10.19ZM420.26,377.88h-8.29v11.9h8.29c3.86,0,6.39-2.47,6.39-5.95s-2.53-5.95-6.39-5.95Z"/>
    <path class="cls-7" d="M461.79,377.88v37.22h-8.8v-37.22h-11.77v-7.85h32.35v7.85h-11.77Z"/>
  </g>
  <g>
    <path class="cls-6" d="M113.67,461.51l-6.87-21.04h2.93l3.28,10.36c.91,2.84,1.69,5.4,2.25,7.86h.06c.59-2.43,1.47-5.09,2.4-7.83l3.56-10.39h2.9l-7.52,21.04h-3Z"/>
    <path class="cls-6" d="M139.01,453.83c0,5.59-3.87,8.02-7.52,8.02-4.09,0-7.24-3-7.24-7.77,0-5.06,3.31-8.02,7.49-8.02s7.27,3.15,7.27,7.77ZM127.03,453.99c0,3.31,1.9,5.81,4.59,5.81s4.59-2.47,4.59-5.87c0-2.56-1.28-5.81-4.53-5.81s-4.65,3-4.65,5.87Z"/>
    <path class="cls-6" d="M145.78,442.07v4.34h3.93v2.09h-3.93v8.15c0,1.87.53,2.93,2.06,2.93.72,0,1.25-.09,1.59-.19l.12,2.06c-.53.22-1.37.37-2.43.37-1.28,0-2.31-.41-2.96-1.15-.78-.81-1.06-2.15-1.06-3.93v-8.24h-2.34v-2.09h2.34v-3.62l2.68-.72Z"/>
    <path class="cls-6" d="M152.81,451.12c0-1.78-.03-3.31-.12-4.71h2.4l.09,2.96h.12c.69-2.03,2.34-3.31,4.18-3.31.31,0,.53.03.78.09v2.59c-.28-.06-.56-.09-.94-.09-1.93,0-3.31,1.47-3.68,3.53-.06.37-.12.81-.12,1.28v8.05h-2.72v-10.39Z"/>
    <path class="cls-6" d="M164.23,454.46c.06,3.71,2.43,5.24,5.18,5.24,1.97,0,3.15-.34,4.18-.78l.47,1.97c-.97.44-2.62.94-5.03.94-4.65,0-7.43-3.06-7.43-7.62s2.68-8.15,7.08-8.15c4.93,0,6.24,4.34,6.24,7.12,0,.56-.06,1-.09,1.28h-10.61ZM172.28,452.49c.03-1.75-.72-4.46-3.81-4.46-2.78,0-4,2.56-4.21,4.46h8.02Z"/>
    <path class="cls-6" d="M188.54,461.51l-6.87-21.04h2.93l3.28,10.36c.91,2.84,1.69,5.4,2.25,7.86h.06c.59-2.43,1.47-5.09,2.4-7.83l3.56-10.39h2.9l-7.52,21.04h-3Z"/>
    <path class="cls-6" d="M203.81,442.16c.03.94-.66,1.69-1.75,1.69-.97,0-1.65-.75-1.65-1.69s.72-1.72,1.72-1.72,1.69.75,1.69,1.72ZM200.75,461.51v-15.11h2.75v15.11h-2.75Z"/>
    <path class="cls-6" d="M207.68,458.7c.81.53,2.25,1.09,3.62,1.09,2,0,2.93-1,2.93-2.25,0-1.31-.78-2.03-2.81-2.78-2.72-.97-4-2.47-4-4.28,0-2.43,1.97-4.43,5.21-4.43,1.53,0,2.87.44,3.71.94l-.69,2c-.59-.37-1.69-.87-3.09-.87-1.62,0-2.53.94-2.53,2.06,0,1.25.91,1.81,2.87,2.56,2.62,1,3.96,2.31,3.96,4.56,0,2.65-2.06,4.53-5.65,4.53-1.65,0-3.18-.41-4.24-1.03l.69-2.09Z"/>
    <path class="cls-6" d="M223.47,442.16c.03.94-.66,1.69-1.75,1.69-.97,0-1.65-.75-1.65-1.69s.72-1.72,1.72-1.72,1.69.75,1.69,1.72ZM220.41,461.51v-15.11h2.75v15.11h-2.75Z"/>
    <path class="cls-6" d="M241.39,453.83c0,5.59-3.87,8.02-7.52,8.02-4.09,0-7.24-3-7.24-7.77,0-5.06,3.31-8.02,7.49-8.02s7.27,3.15,7.27,7.77ZM229.4,453.99c0,3.31,1.9,5.81,4.59,5.81s4.59-2.47,4.59-5.87c0-2.56-1.28-5.81-4.53-5.81s-4.65,3-4.65,5.87Z"/>
    <path class="cls-6" d="M244.85,450.49c0-1.56-.03-2.84-.12-4.09h2.43l.16,2.5h.06c.75-1.44,2.5-2.84,4.99-2.84,2.09,0,5.34,1.25,5.34,6.43v9.02h-2.75v-8.71c0-2.43-.91-4.46-3.5-4.46-1.81,0-3.21,1.28-3.68,2.81-.12.34-.19.81-.19,1.28v9.08h-2.75v-11.02Z"/>
    <path class="cls-6" d="M281.84,439.35v18.26c0,1.34.03,2.87.13,3.9h-2.47l-.13-2.62h-.06c-.84,1.69-2.68,2.96-5.15,2.96-3.65,0-6.46-3.09-6.46-7.68-.03-5.03,3.09-8.12,6.77-8.12,2.31,0,3.87,1.09,4.56,2.31h.06v-9.02h2.75ZM279.09,452.55c0-.34-.03-.81-.12-1.15-.41-1.75-1.9-3.18-3.96-3.18-2.84,0-4.53,2.5-4.53,5.84,0,3.06,1.5,5.59,4.46,5.59,1.84,0,3.53-1.22,4.03-3.28.09-.37.12-.75.12-1.19v-2.62Z"/>
    <path class="cls-6" d="M299.03,457.39c0,1.56.03,2.93.12,4.12h-2.43l-.16-2.47h-.06c-.72,1.22-2.31,2.81-4.99,2.81-2.37,0-5.21-1.31-5.21-6.62v-8.83h2.75v8.36c0,2.87.87,4.81,3.37,4.81,1.84,0,3.12-1.28,3.62-2.5.16-.41.25-.91.25-1.4v-9.27h2.75v10.99Z"/>
    <path class="cls-6" d="M310.3,440.76c1.65-.25,3.62-.44,5.77-.44,3.9,0,6.68.91,8.52,2.62,1.87,1.72,2.97,4.15,2.97,7.55s-1.06,6.24-3.03,8.18c-1.97,1.97-5.21,3.03-9.3,3.03-1.94,0-3.56-.09-4.93-.25v-20.69ZM313.02,459.36c.69.13,1.69.16,2.75.16,5.81,0,8.96-3.25,8.96-8.93.03-4.96-2.78-8.12-8.52-8.12-1.4,0-2.47.13-3.18.28v16.6Z"/>
    <path class="cls-6" d="M334.05,442.16c.03.94-.66,1.69-1.75,1.69-.97,0-1.65-.75-1.65-1.69s.72-1.72,1.72-1.72,1.69.75,1.69,1.72ZM331,461.51v-15.11h2.75v15.11h-2.75Z"/>
    <path class="cls-6" d="M351.31,446.4c-.06,1.09-.13,2.31-.13,4.15v8.77c0,3.46-.69,5.59-2.15,6.9-1.47,1.37-3.59,1.81-5.49,1.81s-3.81-.44-5.02-1.25l.69-2.09c1,.62,2.56,1.19,4.43,1.19,2.81,0,4.87-1.47,4.87-5.27v-1.69h-.06c-.84,1.4-2.47,2.53-4.81,2.53-3.75,0-6.43-3.18-6.43-7.37,0-5.12,3.34-8.02,6.8-8.02,2.62,0,4.06,1.37,4.71,2.62h.06l.13-2.28h2.4ZM348.47,452.37c0-.47-.03-.87-.16-1.25-.5-1.59-1.84-2.9-3.84-2.9-2.62,0-4.49,2.22-4.49,5.71,0,2.96,1.5,5.43,4.46,5.43,1.69,0,3.21-1.06,3.81-2.81.16-.47.22-1,.22-1.47v-2.72Z"/>
    <path class="cls-6" d="M358.62,442.16c.03.94-.66,1.69-1.75,1.69-.97,0-1.65-.75-1.65-1.69s.72-1.72,1.72-1.72,1.69.75,1.69,1.72ZM355.56,461.51v-15.11h2.75v15.11h-2.75Z"/>
    <path class="cls-6" d="M366.17,442.07v4.34h3.93v2.09h-3.93v8.15c0,1.87.53,2.93,2.06,2.93.72,0,1.25-.09,1.59-.19l.13,2.06c-.53.22-1.37.37-2.43.37-1.28,0-2.31-.41-2.97-1.15-.78-.81-1.06-2.15-1.06-3.93v-8.24h-2.34v-2.09h2.34v-3.62l2.68-.72Z"/>
    <path class="cls-6" d="M381.56,461.51l-.22-1.9h-.09c-.84,1.19-2.47,2.25-4.62,2.25-3.06,0-4.62-2.15-4.62-4.34,0-3.65,3.25-5.65,9.08-5.62v-.31c0-1.25-.34-3.5-3.43-3.5-1.4,0-2.87.44-3.93,1.12l-.62-1.81c1.25-.81,3.06-1.34,4.96-1.34,4.62,0,5.74,3.15,5.74,6.18v5.65c0,1.31.06,2.59.25,3.62h-2.5ZM381.15,453.8c-3-.06-6.4.47-6.4,3.4,0,1.78,1.19,2.62,2.59,2.62,1.97,0,3.21-1.25,3.65-2.53.09-.28.16-.59.16-.87v-2.62Z"/>
    <path class="cls-6" d="M388.24,439.35h2.75v22.16h-2.75v-22.16Z"/>
  </g>
  <g>
    <rect class="cls-1" x="5.74" y="451.9" width="60.18" height="3.87"/>
    <rect class="cls-1" x="434.08" y="451.9" width="60.18" height="3.87"/>
  </g>
</svg>