<?xml version="1.0" encoding="UTF-8"?>
<svg id="Layer_1" data-name="Layer 1" xmlns="http://www.w3.org/2000/svg" viewBox="0 0 500 500">
  <defs>
    <style>
      .cls-1 {
        fill: #1d1d1b;
      }

      .cls-1, .cls-2, .cls-3 {
        stroke-width: 0px;
      }

      .cls-2 {
        fill: #e71d73;
      }

      .cls-3 {
        fill: #fff;
      }
    </style>
  </defs>
  <path class="cls-2" d="M500,250c0,138.07-111.93,250-250,250S0,388.07,0,250,111.93,0,250,0s250,111.93,250,250"/>
  <path class="cls-3" d="M249.85,487.07c-32,0-63.05-6.27-92.28-18.63-28.23-11.94-53.58-29.03-75.36-50.81-21.77-21.77-38.87-47.12-50.81-75.36-12.36-29.23-18.63-60.28-18.63-92.28s6.27-63.05,18.63-92.28c11.94-28.23,29.03-53.58,50.81-75.36,21.77-21.77,47.12-38.87,75.36-50.81,29.23-12.36,60.28-18.63,92.28-18.63s63.05,6.27,92.28,18.63c28.23,11.94,53.58,29.03,75.36,50.81,21.77,21.77,38.87,47.12,50.81,75.36,12.36,29.23,18.63,60.28,18.63,92.28s-6.27,63.05-18.63,92.28c-11.94,28.23-29.03,53.58-50.81,75.36-21.77,21.77-47.12,38.86-75.36,50.81-29.23,12.36-60.28,18.63-92.28,18.63ZM249.85,18.84c-31.21,0-61.48,6.11-89.98,18.16-27.53,11.64-52.25,28.31-73.48,49.54-21.23,21.23-37.9,45.95-49.54,73.48-12.05,28.5-18.16,58.77-18.16,89.98s6.11,61.48,18.16,89.98c11.64,27.53,28.31,52.25,49.54,73.48,21.23,21.23,45.95,37.9,73.48,49.54,28.5,12.05,58.77,18.16,89.98,18.16s61.48-6.11,89.98-18.16c27.53-11.64,52.25-28.31,73.48-49.54,21.23-21.23,37.9-45.95,49.54-73.48,12.05-28.5,18.16-58.77,18.16-89.98s-6.11-61.48-18.16-89.98c-11.64-27.53-28.31-52.25-49.54-73.48-21.23-21.23-45.95-37.9-73.48-49.54-28.5-12.05-58.77-18.16-89.98-18.16Z"/>
  <path class="cls-3" d="M364.42,420.41l-3.31-4.9c26.52-17.89,48.61-42.19,63.86-70.25,7.76-14.28,13.75-29.48,17.79-45.19,4.17-16.18,6.28-32.95,6.28-49.82,0-22.27-3.65-44.13-10.84-64.98-6.95-20.16-17.08-39-30.09-56l4.69-3.59c13.4,17.51,23.83,36.91,30.99,57.67,7.41,21.47,11.16,43.98,11.16,66.9,0,17.37-2.18,34.63-6.47,51.29-4.17,16.18-10.33,31.83-18.32,46.54-15.71,28.89-38.45,53.9-65.75,72.33Z"/>
  <path class="cls-3" d="M135.16,420.33c-27.28-18.43-49.98-43.43-65.67-72.31-7.98-14.7-14.14-30.35-18.3-46.51-4.28-16.65-6.46-33.9-6.46-51.26,0-22.08,3.49-43.8,10.37-64.57,6.66-20.08,16.37-38.97,28.89-56.13l4.77,3.48c-12.15,16.67-21.59,35.01-28.05,54.51-6.68,20.16-10.07,41.26-10.07,62.71,0,16.86,2.11,33.61,6.27,49.79,4.04,15.7,10.02,30.89,17.77,45.16,15.24,28.05,37.3,52.34,63.79,70.23l-3.31,4.9Z"/>
  <path class="cls-3" d="M489.81,250.08c0-20.92-2.69-41.21-7.72-60.55h-78.67c-24.11-61.69-84.13-105.38-154.35-105.38s-130.24,43.7-154.35,105.38H17.6c-5.03,19.34-7.72,39.63-7.72,60.55,0,27.5,4.64,53.91,13.17,78.51h80.24c28.02,51.74,82.79,86.88,145.77,86.88s117.75-35.14,145.77-86.88h81.8c8.52-24.6,13.17-51.01,13.17-78.51"/>
  <path class="cls-3" d="M164.85,419.99c-1.1-2.76-2.9-4.82-5.49-6.32-1.88-1.08-3.94-1.51-5.81-1.21-1.92.31-3.48,1.35-4.39,2.92l-.03.05c-.95,1.65-1.1,3.26-.44,4.92.6,1.53,1.89,3.13,4.06,5.03,4.05,3.61,3.8,4.9,3.04,6.22l-.03.05c-.5.86-1.31,1.4-2.35,1.55-1.15.17-2.51-.16-3.83-.92-2.38-1.37-3.88-3.32-4.71-6.11l-.31-1.03-3.03.95.32,1.01c1.09,3.5,3.1,6.06,6.14,7.82,1.67.96,3.35,1.43,4.91,1.43,2.37,0,4.44-1.09,5.65-3.19l.03-.05c.94-1.62,1.09-3.2.47-4.84-.59-1.55-1.88-3.17-4.06-5.09-4.08-3.62-3.82-4.92-3.06-6.23l.03-.05c.43-.74,1.21-1.24,2.19-1.4,1.13-.18,2.42.11,3.64.82,1.91,1.1,3.3,2.74,4.14,4.87l.39,1,2.94-1.2-.39-.98Z"/>
  <rect class="cls-3" x="159.65" y="431.71" width="23.47" height="3.16" transform="translate(-294.17 413.95) rotate(-66.04)"/>
  <polygon class="cls-3" points="196.87 448.7 188.67 427.74 187.5 427.37 187.33 426.94 187.23 427.29 186.27 426.99 179.31 449.41 182.31 450.34 187.57 433.38 195.83 454.53 197 454.89 197.1 455.14 197.16 454.94 198.12 455.24 205.07 432.82 202.08 431.89 196.87 448.7"/>
  <path class="cls-3" d="M214.31,446.63c.35-2.41,1.52-4.52,3.3-5.97,1.79-1.45,4.02-2.06,6.29-1.73,3.27.47,4.95,2.13,6.27,3.85l.65.84,2.53-1.97-.68-.84c-2.03-2.52-4.23-4.32-8.3-4.91-6.44-.94-12.26,3.59-13.24,10.3v.06c-.47,3.2.24,6.35,2,8.87,1.8,2.57,4.53,4.24,7.69,4.7.64.09,1.28.14,1.9.14,2.74,0,5.28-.91,7.72-2.76l.86-.65-1.94-2.48-.84.65c-2.33,1.79-4.61,2.45-7.2,2.08-4.67-.68-7.76-5.12-7.04-10.12v-.06Z"/>
  <polygon class="cls-3" points="240.56 461.23 257.87 461.52 257.92 458.44 243.78 458.21 243.89 451.01 256.54 451.22 256.6 448.15 243.94 447.94 244.06 440.89 258.05 441.12 258.1 438.05 240.94 437.77 240.56 461.23"/>
  <path class="cls-3" d="M287.45,454.5l4.71-6.87c2.86-4.17,3.63-6.47,3.06-9.12v-.06c-.8-3.69-4.5-5.8-8.61-4.92-3.5.75-5.8,2.95-7.04,6.73l-.32.98,2.9,1.06.35-1.03c.94-2.75,2.43-4.26,4.69-4.75,2.36-.51,4.48.65,4.91,2.69.31,1.42,0,3.11-2.5,6.7l-7.27,10.58.47,2.17,16.27-3.49-.65-3.03-10.98,2.35Z"/>
  <path class="cls-3" d="M322.95,434.81c-1.09-3-2.95-5.48-5.23-6.98-2.51-1.64-5.4-2-8.15-1-2.73.99-4.71,3.13-5.58,6.02-.79,2.63-.63,5.71.46,8.69l.02.06c1.93,5.32,5.99,8.53,10.3,8.53,1.02,0,2.05-.18,3.08-.55,2.73-.99,4.71-3.13,5.58-6.02.79-2.63.63-5.71-.46-8.69l-.02-.06ZM316.82,446.68c-4.08,1.48-7.87-2.09-9.37-6.2l-.02-.06c-1.52-4.19-.93-9.21,3.16-10.69.68-.25,1.32-.35,1.92-.35,1.44,0,2.65.58,3.51,1.17,1.68,1.15,3.11,3.11,3.93,5.38l.02.06c1.52,4.19.93,9.21-3.16,10.69"/>
  <polygon class="cls-3" points="328.87 418.73 324.81 423.45 327.07 425.43 329.6 422.57 338.5 440.32 341.3 438.92 330.72 417.8 328.87 418.73"/>
  <polygon class="cls-3" points="342.09 411.34 338.45 416.4 340.86 418.18 343.15 415.11 353.51 432.05 356.19 430.41 343.85 410.26 342.09 411.34"/>
  <path class="cls-3" d="M107.19,103.1c-2.84-2.99-6.85-2.71-10.47.73l-5.58,5.3,14.26,15,2.2-2.09-4.92-5.17,3.23-3.07c1.72-1.63,2.78-3.45,3.07-5.27.32-1.99-.29-3.85-1.75-5.39l-.04-.04ZM103.88,111.62l-3.25,3.09-5.26-5.53,3.32-3.16c1.2-1.14,2.42-1.8,3.54-1.92,1.05-.11,1.98.26,2.78,1.1l.04.04c.81.85,1.13,1.82.95,2.88-.18,1.14-.92,2.35-2.13,3.5"/>
  <path class="cls-3" d="M126.44,87.63l-.03-.04c-.96-1.28-2.33-2.11-3.84-2.35h-.03c-1.93-.25-4.03.43-6.08,1.97l-6.97,5.25,12.45,16.53,2.42-1.82-4.77-6.33,3.98-3,9.6,2.7,3.06-2.3-10.15-2.81c1.99-2.53,2.16-5.4.37-7.79M117.81,98.47l-4.13-5.48,4.51-3.4c1.42-1.07,4.05-2.5,5.83-.15l.03.04c1.27,1.68.55,3.87-1.88,5.7l-4.36,3.29Z"/>
  <polygon class="cls-3" points="153.03 84.72 142.42 90.95 139.39 85.79 148.88 80.22 147.39 77.67 137.89 83.25 134.93 78.2 145.43 72.03 143.93 69.49 130.82 77.19 141.3 95.03 154.52 87.27 153.03 84.72"/>
  <polygon class="cls-3" points="169.57 57.69 169.27 57 169.08 57.9 168.13 58.31 165.6 70.82 154.75 64.07 153.77 64.49 152.99 64 153.29 64.7 152.49 65.04 160.67 84.05 163.42 82.86 157.62 69.38 166.76 75.05 167.83 74.59 169.99 64.05 175.79 77.54 178.58 76.34 170.4 57.33 169.57 57.69"/>
  <rect class="cls-3" x="183.32" y="53.14" width="3.03" height="20.69" transform="translate(-10.55 59.02) rotate(-17.65)"/>
  <path class="cls-3" d="M211.98,57.84l-2.48-11.27-2.96.65,2.5,11.35c.46,2.1.32,3.82-.43,5.1-.7,1.19-1.91,1.98-3.6,2.36-3.54.78-5.98-1.04-6.88-5.11l-2.48-11.3-2.96.65,2.5,11.35c1.06,4.81,4.11,7.55,8.21,7.55.71,0,1.45-.08,2.22-.25,5.18-1.14,7.62-5.38,6.37-11.07"/>
  <polygon class="cls-3" points="239.2 43.26 238.3 43.34 238.24 42.59 237.78 43.38 236.74 43.47 230.4 54.55 222.23 44.72 221.17 44.81 220.58 44.11 220.65 44.86 219.77 44.93 221.55 65.55 224.54 65.29 223.28 50.67 230.17 58.93 231.33 58.82 236.7 49.51 237.96 64.14 240.98 63.88 239.2 43.26"/>
  <path class="cls-3" d="M282.03,64.94l-2.42-2.6c1.51-1.66,2.48-3.77,2.77-6.08.04-.14.06-.28.05-.42.57-5.94-3.31-10.87-9.1-11.52-2.92-.33-5.71.52-7.84,2.38-2.02,1.76-3.31,4.26-3.62,7.05v.05c-.68,6.03,3.22,11.06,9.07,11.72,2.26.25,4.43-.19,6.33-1.28l2.49,2.76,2.27-2.06ZM275.2,61.97c-1.18.57-2.5.78-3.87.63-4.08-.45-6.9-4.18-6.42-8.48v-.06c.46-4.04,3.49-6.86,7.23-6.86.28,0,.56.02.84.05,4.06.45,6.87,4.18,6.39,8.48v.05c-.19,1.62-.83,3.15-1.81,4.33l-3.44-3.81-2.27,2.05,3.34,3.61Z"/>
  <path class="cls-3" d="M306.92,62.87l2.75-11.21-2.94-.72-2.77,11.28c-1,4.08-3.39,5.77-6.91,4.91-1.69-.41-2.89-1.25-3.58-2.5-.72-1.31-.84-3.08-.34-5.12l2.75-11.23-2.94-.72-2.77,11.28c-.69,2.82-.46,5.35.68,7.32,1.1,1.9,2.99,3.22,5.46,3.83.83.2,1.64.3,2.42.3,1.55,0,2.98-.4,4.21-1.2,1.9-1.23,3.28-3.38,3.97-6.23"/>
  <path class="cls-3" d="M312.35,74.19l4.3-4.16,9.47,3.59.44,5.95,3.12,1.18-1.79-22.95-.89-.34-.03-.42-.3.29-.83-.32-16.55,16,3.07,1.16ZM319,67.77l6.2-6.03.67,8.63-6.87-2.6Z"/>
  <polygon class="cls-3" points="348.82 87.27 338.88 82.13 347.02 66.37 344.33 64.97 334.83 83.36 347.47 89.89 348.82 87.27"/>
  <rect class="cls-3" x="349.56" y="83.93" width="20.69" height="3.03" transform="translate(96.88 345.54) rotate(-58.03)"/>
  <polygon class="cls-3" points="386.78 91.65 373.73 81.95 371.97 84.32 377.27 88.26 366.69 102.5 369.12 104.31 379.7 90.07 385.02 94.02 386.78 91.65"/>
  <polygon class="cls-3" points="403.65 106.69 392.38 109.05 393.82 97.6 391.08 95.06 389.23 110.19 383.57 116.3 385.79 118.36 391.45 112.24 406.37 109.21 403.65 106.69"/>
  <polygon class="cls-2" points="445.85 232.04 454.31 249.17 473.21 251.92 459.53 265.26 462.76 284.08 445.85 275.19 428.94 284.08 432.17 265.26 418.49 251.92 437.4 249.17 445.85 232.04"/>
  <polygon class="cls-2" points="52.32 232.04 60.77 249.17 79.68 251.92 66 265.26 69.23 284.08 52.32 275.19 35.41 284.08 38.64 265.26 24.96 251.92 43.86 249.17 52.32 232.04"/>
  <path class="cls-1" d="M336.34,181.02c0,3.59-3.21,6.53-7.12,6.53h-158.46c-3.91,0-7.11-2.93-7.11-6.53s3.2-6.52,7.11-6.52h158.46c3.91,0,7.12,2.93,7.12,6.52M258.29,99.04c-.23-4.41-3.84-7.91-8.3-7.91s-8.04,3.49-8.28,7.87c2.66-.32,5.37-.51,8.11-.51s5.69.2,8.47.55M322.86,168.74h-145.71c2.94-37.67,34.42-67.34,72.85-67.34s69.92,29.67,72.86,67.34M241.66,107.8s-40.86,8.92-53.04,54.13h15.44s8.55-37.72,37.6-54.13"/>
  <path class="cls-1" d="M187.66,375.05h120.93c3.24,0,5.94,2.05,6.73,4.8h.02c.16.52.27,1.06.27,1.62,0,3.53-3.18,6.85-7.02,6.43-11.52-1.24-36.31-7.92-46.18-4.49-5.67,1.96-15.89,9.16-32.84,9.16-31.58,0-42.86-7.38-45.49-12.5-.02-.07-.04-.14-.06-.22-.98-2.25.88-4.8,3.65-4.8M184.41,346.1c9.75-1.51,28.05-2.96,37.54-2.96,11.65,0,11.51,2.38,14.26,9.28l72.72-2.55c3.86,0,7.02,2.9,7.02,6.44,0,.32-.06.62-.1.93h-.04c-.51,3.09-3.37,5.5-6.87,5.5l-72.72-2.54c-2.75,6.9-2.61,9.27-14.26,9.27-9.49,0-27.99-1.43-37.54-2.92v-1.62l41.13-.38v-3.38l-41.13-.85v-1.59l41.13-.74v-3.38l-41.13-.8v-1.75l41.13-.75v-3.38l-41.13-.29v-1.53Z"/>
  <path class="cls-1" d="M124.44,230.84c-.93,2.22-2.26,4.14-3.97,5.76-1.71,1.63-3.75,2.91-6.12,3.84-2.37.93-4.98,1.4-7.81,1.4h-14.17v-36.34h14.17c2.84,0,5.44.46,7.81,1.38,2.37.92,4.41,2.19,6.12,3.82,1.71,1.63,3.04,3.54,3.97,5.74.93,2.2,1.4,4.58,1.4,7.14v.1c0,2.56-.47,4.95-1.4,7.16M117.48,223.68c0-1.59-.27-3.06-.8-4.41-.54-1.35-1.28-2.51-2.23-3.48-.95-.97-2.1-1.72-3.45-2.26-1.35-.54-2.84-.8-4.46-.8h-6.18v21.91h6.18c1.63,0,3.11-.26,4.46-.78,1.35-.52,2.5-1.26,3.45-2.23.95-.97,1.7-2.11,2.23-3.43.54-1.31.8-2.79.8-4.41v-.1Z"/>
  <polygon class="cls-1" points="132.95 241.85 132.95 205.51 160.31 205.51 160.31 212.62 140.84 212.62 140.84 219.99 157.97 219.99 157.97 227.11 140.84 227.11 140.84 234.74 160.56 234.74 160.56 241.85 132.95 241.85"/>
  <polygon class="cls-1" points="167.73 241.85 167.73 205.51 175.72 205.51 175.72 234.63 193.84 234.63 193.84 241.85 167.73 241.85"/>
  <rect class="cls-1" x="200.22" y="205.51" width="7.99" height="36.34"/>
  <path class="cls-1" d="M246.32,238.68c-1,.8-2.1,1.48-3.3,2.05-1.19.57-2.5,1-3.92,1.3-1.42.29-3.01.44-4.78.44-2.67,0-5.14-.49-7.42-1.45-2.28-.97-4.26-2.29-5.92-3.97-1.66-1.68-2.96-3.66-3.89-5.94-.93-2.28-1.4-4.72-1.4-7.32v-.1c0-2.6.47-5.03,1.4-7.29.93-2.27,2.23-4.26,3.89-5.97,1.66-1.71,3.65-3.06,5.97-4.05,2.32-.99,4.88-1.48,7.68-1.48,1.7,0,3.24.14,4.65.42,1.4.28,2.67.66,3.82,1.14,1.14.49,2.2,1.07,3.17,1.76.97.69,1.87,1.45,2.7,2.28l-5.09,5.87c-1.42-1.28-2.86-2.28-4.33-3.01-1.47-.73-3.12-1.09-4.96-1.09-1.52,0-2.93.29-4.23.88-1.3.59-2.41,1.4-3.35,2.44s-1.66,2.24-2.18,3.61c-.52,1.37-.78,2.83-.78,4.39v.1c0,1.56.26,3.03.78,4.41.52,1.38,1.24,2.6,2.15,3.63.92,1.04,2.02,1.86,3.32,2.47,1.3.61,2.73.91,4.28.91,2.08,0,3.83-.38,5.27-1.14,1.44-.76,2.86-1.8,4.28-3.11l5.09,5.14c-.93,1-1.9,1.9-2.91,2.7"/>
  <polygon class="cls-1" points="255.61 241.85 255.61 205.51 282.96 205.51 282.96 212.62 263.5 212.62 263.5 219.99 280.63 219.99 280.63 227.11 263.5 227.11 263.5 234.74 283.22 234.74 283.22 241.85 255.61 241.85"/>
  <path class="cls-1" d="M315.67,235.9c-.65,1.4-1.56,2.58-2.73,3.53-1.17.95-2.56,1.68-4.19,2.18-1.62.5-3.42.75-5.39.75-2.77,0-5.49-.48-8.15-1.43-2.67-.95-5.09-2.41-7.27-4.39l4.72-5.66c1.66,1.35,3.37,2.42,5.11,3.22,1.75.8,3.66,1.19,5.74,1.19,1.66,0,2.95-.3,3.87-.91.92-.6,1.38-1.44,1.38-2.52v-.1c0-.52-.1-.98-.29-1.38-.19-.4-.56-.77-1.09-1.12-.54-.35-1.28-.69-2.24-1.04-.95-.35-2.2-.71-3.72-1.09-1.84-.45-3.5-.95-5-1.51-1.49-.55-2.76-1.24-3.8-2.05-1.04-.81-1.85-1.83-2.42-3.04-.57-1.21-.86-2.72-.86-4.52v-.1c0-1.66.31-3.16.93-4.49.62-1.33,1.49-2.48,2.6-3.45,1.12-.97,2.45-1.71,4-2.23,1.55-.52,3.26-.78,5.13-.78,2.66,0,5.11.4,7.34,1.19,2.23.8,4.28,1.94,6.15,3.43l-4.15,6.02c-1.63-1.11-3.22-1.98-4.78-2.62-1.56-.64-3.11-.96-4.67-.96s-2.73.3-3.5.91c-.78.61-1.17,1.36-1.17,2.26v.1c0,.59.11,1.1.34,1.53.23.43.63.82,1.22,1.17.59.35,1.4.67,2.42.99,1.02.31,2.32.67,3.88,1.09,1.84.48,3.48,1.03,4.92,1.63,1.44.61,2.65,1.33,3.64,2.18.99.85,1.73,1.84,2.24,2.98.5,1.14.76,2.51.76,4.1v.1c0,1.8-.33,3.4-.98,4.8"/>
  <path class="cls-1" d="M371.26,230.84c-.93,2.22-2.26,4.14-3.97,5.76-1.71,1.63-3.76,2.91-6.13,3.84-2.37.93-4.98,1.4-7.81,1.4h-14.17v-36.34h14.17c2.84,0,5.44.46,7.81,1.38,2.37.92,4.41,2.19,6.13,3.82,1.71,1.63,3.04,3.54,3.97,5.74.93,2.2,1.4,4.58,1.4,7.14v.1c0,2.56-.47,4.95-1.4,7.16M364.3,223.68c0-1.59-.27-3.06-.8-4.41-.54-1.35-1.28-2.51-2.23-3.48-.95-.97-2.1-1.72-3.45-2.26-1.35-.54-2.84-.8-4.46-.8h-6.18v21.91h6.18c1.63,0,3.11-.26,4.46-.78,1.35-.52,2.5-1.26,3.45-2.23.95-.97,1.7-2.11,2.23-3.43.54-1.31.8-2.79.8-4.41v-.1Z"/>
  <polygon class="cls-1" points="379.77 241.85 379.77 205.51 407.13 205.51 407.13 212.62 387.66 212.62 387.66 219.99 404.79 219.99 404.79 227.11 387.66 227.11 387.66 234.74 407.39 234.74 407.39 241.85 379.77 241.85"/>
  <polygon class="cls-1" points="92.31 312.64 92.31 302.67 125.09 264.52 93.33 264.52 93.33 253.03 141.95 253.03 141.95 262.99 109.17 301.14 141.95 301.14 141.95 312.64 92.31 312.64"/>
  <polygon class="cls-1" points="191.68 312.64 191.68 288.71 167.5 288.71 167.5 312.64 154.38 312.64 154.38 253.03 167.5 253.03 167.5 276.62 191.68 276.62 191.68 253.03 204.8 253.03 204.8 312.64 191.68 312.64"/>
  <path class="cls-1" d="M277.44,294.8c-1.59,3.72-3.79,6.98-6.6,9.79-2.81,2.81-6.16,5.02-10.05,6.64-3.89,1.62-8.13,2.43-12.73,2.43s-8.83-.81-12.69-2.43c-3.86-1.62-7.2-3.8-10.01-6.56-2.81-2.75-5-5.99-6.56-9.71-1.56-3.72-2.34-7.71-2.34-11.96v-.17c0-4.26.79-8.25,2.38-11.96,1.59-3.72,3.79-6.98,6.6-9.79,2.81-2.81,6.16-5.02,10.05-6.64,3.89-1.62,8.13-2.43,12.73-2.43s8.83.81,12.69,2.43c3.86,1.62,7.2,3.8,10.01,6.56,2.81,2.75,5,5.99,6.56,9.71,1.56,3.72,2.34,7.71,2.34,11.96v.17c0,4.26-.8,8.25-2.38,11.96M266.11,282.83c0-2.55-.44-4.97-1.32-7.24-.88-2.27-2.13-4.26-3.75-5.96-1.62-1.7-3.53-3.05-5.75-4.05-2.21-.99-4.63-1.49-7.24-1.49s-5.1.48-7.28,1.45c-2.19.97-4.06,2.3-5.62,4-1.56,1.7-2.78,3.68-3.66,5.92-.88,2.24-1.32,4.64-1.32,7.2v.17c0,2.55.44,4.97,1.32,7.24.88,2.27,2.13,4.26,3.75,5.96,1.62,1.7,3.52,3.05,5.71,4.04,2.18.99,4.61,1.49,7.28,1.49s5.02-.48,7.24-1.45c2.21-.96,4.1-2.3,5.66-4,1.56-1.7,2.78-3.68,3.66-5.92.88-2.24,1.32-4.64,1.32-7.2v-.17Z"/>
  <path class="cls-1" d="M340.67,298.5c-1.22,3.35-2.97,6.15-5.24,8.39-2.27,2.24-5.02,3.92-8.26,5.02-3.24,1.11-6.84,1.66-10.81,1.66-8,0-14.31-2.21-18.9-6.64-4.6-4.43-6.9-11.04-6.9-19.84v-34.06h13.11v33.72c0,4.88,1.13,8.56,3.41,11.03,2.27,2.47,5.42,3.7,9.45,3.7s7.18-1.19,9.45-3.58c2.27-2.38,3.41-5.96,3.41-10.73v-34.15h13.11v33.64c0,4.54-.61,8.49-1.83,11.84"/>
  <path class="cls-1" d="M392.06,312.64l-12.77-19.07h-10.3v19.07h-13.11v-59.61h27.25c7.1,0,12.62,1.73,16.56,5.19,3.95,3.46,5.92,8.29,5.92,14.48v.17c0,4.83-1.18,8.76-3.53,11.79-2.36,3.04-5.44,5.27-9.24,6.68l14.56,21.29h-15.33ZM392.31,273.38c0-2.84-.91-4.97-2.72-6.39-1.82-1.42-4.34-2.13-7.58-2.13h-13.03v17.12h13.28c3.24,0,5.72-.77,7.45-2.3,1.73-1.53,2.6-3.58,2.6-6.13v-.17Z"/>
</svg>