<?xml version="1.0" encoding="UTF-8"?>
<svg id="Layer_1" data-name="Layer 1" xmlns="http://www.w3.org/2000/svg" viewBox="0 0 500 500">
  <defs>
    <style>
      .cls-1 {
        fill: #efcc00;
      }

      .cls-1, .cls-2 {
        stroke-width: 0px;
      }

      .cls-2 {
        fill: #fff;
      }
    </style>
  </defs>
  <rect class="cls-2" y="308.34" width="122.98" height="12.9"/>
  <g>
    <path class="cls-2" d="M2.71,288.79c.5-.7.93-2.76,1.28-6.17.35-3.41.63-7.47.83-12.19.2-4.71.35-9.7.45-14.97.1-5.26.15-10.15.15-14.67,0-7.12-.1-13.69-.3-19.71-.2-6.02-.53-11.26-.98-15.72-.45-4.46-1-8.05-1.66-10.76-.65-2.71-1.48-4.31-2.48-4.81.7-.6,2.26-1.3,4.66-2.11,2.41-.8,5.39-1.55,8.95-2.26,3.56-.7,7.52-1.3,11.89-1.81,4.36-.5,8.8-.75,13.31-.75,19.36,0,33.65,4.54,42.88,13.62,9.23,9.08,13.84,22.69,13.84,40.84,0,9.93-1.38,18.58-4.14,25.95-2.76,7.37-6.65,13.49-11.66,18.35-5.02,4.87-11.08,8.53-18.2,10.98-7.12,2.46-15.04,3.69-23.77,3.69-4.11,0-8.03-.23-11.73-.68-3.71-.45-7.07-1.05-10.08-1.81-3.01-.75-5.64-1.58-7.9-2.48-2.26-.9-4.04-1.75-5.34-2.56M26.78,291.05c1.6,1.5,4.81,2.26,9.63,2.26,5.31,0,10.2-1.03,14.67-3.08,4.46-2.05,8.32-5.29,11.58-9.7,3.26-4.41,5.79-10.15,7.6-17.23,1.81-7.07,2.71-15.57,2.71-25.5s-.95-18.83-2.86-25.5c-1.91-6.67-4.51-11.96-7.82-15.87-3.31-3.91-7.17-6.62-11.58-8.12-4.41-1.5-9.13-2.26-14.14-2.26-1.71,0-3.38.07-5.04.23-1.65.15-2.99.38-3.99.68v10.3c0,4.36-.03,9.23-.08,14.59-.05,5.37-.07,11.06-.07,17.07s-.03,11.99-.08,17.9c-.05,5.92-.08,11.56-.08,16.92s-.03,10.08-.07,14.14c-.05,4.06-.1,7.3-.15,9.7-.05,2.41-.13,3.56-.23,3.46"/>
    <path class="cls-2" d="M188.2,284.28c.2.2.3.4.3.6,0,.8-.7,1.81-2.11,3.01-1.41,1.2-3.21,2.38-5.42,3.54-2.21,1.15-4.66,2.16-7.37,3.01-2.71.85-5.37,1.28-7.97,1.28-2.41,0-4.34-.45-5.79-1.35-1.45-.9-2.58-2.13-3.38-3.69-.8-1.55-1.33-3.43-1.58-5.64-.25-2.2-.38-4.66-.38-7.37-2.51,5.22-6.09,9.63-10.76,13.24-4.66,3.61-10.1,5.42-16.32,5.42-2.71,0-5.29-.38-7.75-1.13-2.46-.75-4.61-1.83-6.47-3.23-1.86-1.4-3.31-3.18-4.36-5.34-1.05-2.16-1.58-4.69-1.58-7.6,0-3.41.8-6.42,2.41-9.03,1.6-2.61,3.74-4.84,6.39-6.69,2.66-1.85,5.69-3.41,9.1-4.66,3.41-1.25,6.85-2.28,10.31-3.08,3.46-.8,6.85-1.43,10.15-1.88,3.31-.45,6.22-.78,8.73-.98v-22.12c0-5.31-.73-9.03-2.18-11.13-1.45-2.11-3.99-3.16-7.6-3.16s-6.12,1.08-7.82,3.23c-1.71,2.16-2.56,4.74-2.56,7.75,0,2.01.32,4.01.98,6.02.65,2.01,1.68,3.76,3.08,5.27-1.71,1.71-3.86,3.01-6.47,3.91-2.61.9-5.27,1.35-7.97,1.35-3.41,0-6.39-.85-8.95-2.56-2.56-1.7-3.84-4.51-3.84-8.42,0-3.51,1.1-6.49,3.31-8.95,2.2-2.46,5.06-4.46,8.57-6.02,3.51-1.55,7.4-2.68,11.66-3.38,4.26-.7,8.5-1.05,12.71-1.05,3.71,0,7.35.3,10.91.9,3.56.6,6.74,1.78,9.55,3.54,2.81,1.76,5.04,4.21,6.69,7.37,1.65,3.16,2.48,7.3,2.48,12.41l-.15,38.51c0,3.91.4,6.49,1.2,7.75.8,1.26,2.16,1.88,4.06,1.88,1.1,0,2.28-.2,3.54-.6,1.25-.4,2.13-.7,2.63-.9M139.76,282.17c2.91,0,5.57-.65,7.97-1.96,2.41-1.3,4.61-3.11,6.62-5.42v-19.11c-7.42.8-13.11,2.73-17.07,5.79-3.96,3.06-5.94,6.65-5.94,10.76,0,3.31.8,5.79,2.41,7.45,1.6,1.66,3.61,2.48,6.02,2.48"/>
    <path class="cls-2" d="M260.56,274.35c1.5,0,2.73.75,3.69,2.26.95,1.5,1.43,3.66,1.43,6.47,0,1.61-.25,3.26-.75,4.96-.5,1.71-1.28,3.29-2.33,4.74-1.05,1.45-2.43,2.66-4.14,3.61-1.71.95-3.76,1.43-6.17,1.43-3.61,0-6.92-.2-9.93-.6-3.01-.4-5.94-.83-8.8-1.28-2.86-.45-5.72-.88-8.58-1.28-2.86-.4-5.99-.6-9.4-.6-2.61,0-5.42.15-8.42.45-3.01.3-6.32.85-9.93,1.66-.8-.1-1.38-.5-1.73-1.2-.35-.7-.53-1.5-.53-2.41,0-3.91,1.2-8.05,3.61-12.41,2.41-4.36,5.44-8.82,9.1-13.39,3.66-4.56,7.62-9.1,11.88-13.62,4.26-4.51,8.22-8.9,11.89-13.16,3.66-4.26,6.69-8.3,9.1-12.11,2.41-3.81,3.61-7.27,3.61-10.38-8.83,0-15.82.53-20.99,1.58-5.17,1.05-9.15,2.41-11.96,4.06-2.81,1.65-4.77,3.54-5.87,5.64-1.1,2.11-1.96,4.21-2.56,6.32-1.91-.3-2.86-2.05-2.86-5.27,0-1.6.38-3.31,1.13-5.11.75-1.81,1.73-3.46,2.93-4.96,1.2-1.5,2.56-2.76,4.06-3.76,1.5-1,3.01-1.5,4.51-1.5h43.48c2,0,3.88.45,5.64,1.35,1.75.9,2.63,2.81,2.63,5.72,0,3.51-1.13,7.45-3.38,11.81-2.26,4.36-5.04,8.85-8.35,13.46-3.31,4.61-6.95,9.23-10.91,13.84-3.96,4.61-7.6,8.9-10.91,12.86-3.31,3.96-6.09,7.47-8.35,10.53-2.26,3.06-3.38,5.34-3.38,6.85h.75c2.91,0,6.09.28,9.55.83,3.46.55,6.94.83,10.46.83,2.51,0,4.94-.25,7.3-.75,2.36-.5,4.49-1.4,6.39-2.71,1.9-1.3,3.48-3.13,4.74-5.49,1.25-2.35,2.03-5.44,2.33-9.25"/>
    <path class="cls-2" d="M308.85,232.07c0,6.42.02,12.06.07,16.92.05,4.87.15,9.53.3,13.99.15,4.46.38,9.05.68,13.77.3,4.72.8,10.18,1.5,16.4-.7.3-1.81.63-3.31.98-1.5.35-3.16.68-4.96.98-1.81.3-3.64.58-5.49.83-1.86.25-3.49.38-4.89.38-1.6,0-2.86-.18-3.76-.53-.9-.35-1.58-.9-2.03-1.65-.45-.75-.73-1.73-.83-2.93-.1-1.2-.15-2.66-.15-4.36l.6-48.74c0-6.52-.53-10.96-1.58-13.31-1.05-2.36-3.29-3.54-6.69-3.54-1.41,0-3.06.2-4.96.6-.1-.1-.15-.25-.15-.45,0-.6.75-1.33,2.26-2.18,1.5-.85,3.41-1.66,5.72-2.41,2.31-.75,4.91-1.38,7.82-1.88,2.91-.5,5.72-.75,8.42-.75s4.81.28,6.32.83c1.5.55,2.63,1.53,3.38,2.93.75,1.41,1.23,3.26,1.43,5.57.2,2.31.3,5.17.3,8.58M297.12,177.92c4.61,0,7.75,1.13,9.4,3.38,1.65,2.26,2.48,4.94,2.48,8.05,0,4.21-1.15,7.72-3.46,10.53-2.31,2.81-5.82,4.21-10.53,4.21-4.21,0-7.2-1.13-8.95-3.38-1.76-2.26-2.63-4.99-2.63-8.2,0-4.11,1.23-7.57,3.69-10.38,2.46-2.81,5.79-4.21,10-4.21"/>
    <path class="cls-2" d="M403.78,284.28c.2.2.3.4.3.6,0,.8-.7,1.81-2.11,3.01-1.41,1.2-3.21,2.38-5.42,3.54-2.21,1.15-4.66,2.16-7.37,3.01-2.71.85-5.37,1.28-7.97,1.28-2.41,0-4.34-.45-5.79-1.35-1.46-.9-2.58-2.13-3.38-3.69-.8-1.55-1.33-3.43-1.58-5.64-.25-2.2-.38-4.66-.38-7.37-2.51,5.22-6.09,9.63-10.76,13.24-4.66,3.61-10.11,5.42-16.32,5.42-2.71,0-5.29-.38-7.75-1.13-2.46-.75-4.61-1.83-6.47-3.23-1.86-1.4-3.31-3.18-4.36-5.34-1.05-2.16-1.58-4.69-1.58-7.6,0-3.41.8-6.42,2.41-9.03,1.6-2.61,3.74-4.84,6.39-6.69,2.66-1.85,5.69-3.41,9.1-4.66,3.41-1.25,6.84-2.28,10.3-3.08,3.46-.8,6.85-1.43,10.15-1.88,3.31-.45,6.22-.78,8.73-.98v-22.12c0-5.31-.73-9.03-2.18-11.13-1.45-2.11-3.99-3.16-7.6-3.16s-6.12,1.08-7.82,3.23c-1.71,2.16-2.56,4.74-2.56,7.75,0,2.01.32,4.01.98,6.02.65,2.01,1.68,3.76,3.08,5.27-1.71,1.71-3.86,3.01-6.47,3.91-2.61.9-5.27,1.35-7.97,1.35-3.41,0-6.39-.85-8.95-2.56-2.56-1.7-3.84-4.51-3.84-8.42,0-3.51,1.1-6.49,3.31-8.95,2.21-2.46,5.06-4.46,8.58-6.02,3.51-1.55,7.4-2.68,11.66-3.38,4.26-.7,8.5-1.05,12.71-1.05,3.71,0,7.35.3,10.91.9,3.56.6,6.74,1.78,9.55,3.54,2.81,1.76,5.04,4.21,6.69,7.37,1.66,3.16,2.48,7.3,2.48,12.41l-.15,38.51c0,3.91.4,6.49,1.2,7.75.8,1.26,2.16,1.88,4.06,1.88,1.1,0,2.28-.2,3.54-.6,1.25-.4,2.13-.7,2.63-.9M355.34,282.17c2.91,0,5.57-.65,7.97-1.96,2.41-1.3,4.61-3.11,6.62-5.42v-19.11c-7.42.8-13.11,2.73-17.08,5.79-3.96,3.06-5.94,6.65-5.94,10.76,0,3.31.8,5.79,2.41,7.45,1.6,1.66,3.61,2.48,6.02,2.48"/>
    <path class="cls-2" d="M466.3,296.31c-3.61,0-7.15-.4-10.61-1.2-3.46-.8-6.54-2.01-9.25-3.61-2.71-1.6-4.89-3.54-6.54-5.79-1.66-2.26-2.48-4.84-2.48-7.75,0-3.71,1.13-6.49,3.38-8.35,2.26-1.85,4.74-2.78,7.45-2.78,3.41,0,6.17,1.26,8.27,3.76-.5,1.2-.88,2.48-1.13,3.84-.25,1.35-.38,2.73-.38,4.14,0,1.91.25,3.74.75,5.49.5,1.76,1.25,3.31,2.26,4.66,1,1.35,2.28,2.46,3.84,3.31,1.55.85,3.38,1.28,5.49,1.28,4.21,0,7.17-1.2,8.88-3.61,1.7-2.41,2.56-5.51,2.56-9.33,0-3.21-1-6.07-3.01-8.58-2.01-2.51-4.49-4.81-7.45-6.92-2.96-2.11-6.17-4.14-9.63-6.09-3.46-1.96-6.67-4.08-9.63-6.39-2.96-2.31-5.44-4.91-7.45-7.82-2.01-2.91-3.01-6.27-3.01-10.08,0-4.21.95-7.67,2.86-10.38,1.9-2.71,4.41-4.84,7.52-6.39,3.11-1.55,6.64-2.66,10.61-3.31,3.96-.65,8-.98,12.11-.98,3.81,0,7.3.4,10.46,1.2,3.16.8,5.87,1.88,8.12,3.23,2.26,1.35,4.01,2.93,5.27,4.74,1.25,1.81,1.88,3.66,1.88,5.57,0,3.21-1.05,5.74-3.16,7.6-2.11,1.86-4.66,2.78-7.67,2.78-1.71,0-3.29-.25-4.74-.75-1.45-.5-2.68-1.25-3.69-2.26,1.3-3.11,1.96-6.22,1.96-9.33,0-2.61-.7-4.89-2.11-6.85-1.41-1.96-4.01-2.93-7.82-2.93-2.91,0-5.44,1.03-7.6,3.08-2.16,2.06-3.23,5.04-3.23,8.95,0,3.51,1,6.5,3.01,8.95,2.01,2.46,4.51,4.69,7.52,6.69,3.01,2.01,6.27,3.91,9.78,5.72,3.51,1.81,6.77,3.84,9.78,6.09,3.01,2.26,5.52,4.81,7.52,7.67,2.01,2.86,3.01,6.34,3.01,10.46,0,3.61-.93,6.82-2.78,9.63-1.86,2.81-4.31,5.14-7.37,7-3.06,1.86-6.62,3.26-10.68,4.21-4.06.95-8.35,1.43-12.86,1.43"/>
    <path class="cls-2" d="M413.23,214.99c1.43-1.43,2.99-3.64,4.68-6.63,1.69-2.99,3.06-6.21,4.1-9.65,1.04-3.45,1.54-6.81,1.51-10.09-.03-3.28-1.09-5.96-3.17-8.05-1.89-1.89-3.84-2.76-5.85-2.63-2.01.13-3.77.94-5.27,2.44-1.5,1.5-2.44,3.35-2.83,5.56,3.84,4.88,6.06,10,6.68,15.36.62,5.37-.21,10.42-2.49,15.17.65.13,1.53-.36,2.63-1.46"/>
    <path class="cls-1" d="M148.06,307.7v8.59c0,3.77,2.13,4.74,4.13,4.74,2.37,0,4.13-.99,4.13-4.74v-8.59h1.11v8.53c0,4.43-2.35,5.81-5.29,5.81s-5.23-1.52-5.23-5.63v-8.71h1.13Z"/>
    <path class="cls-1" d="M178.71,315.26v6.62h-1.11v-14.18h5.08c2.79,0,4.27,1.5,4.27,3.73,0,1.8-1.07,2.98-2.65,3.32,1.46.34,2.43,1.3,2.43,3.71v.55c0,.99-.08,2.33.18,2.88h-1.11c-.26-.61-.2-1.74-.2-2.96v-.36c0-2.33-.69-3.3-3.4-3.3h-3.48ZM178.71,314.25h3.42c2.49,0,3.65-.93,3.65-2.79,0-1.74-1.13-2.73-3.34-2.73h-3.73v5.53Z"/>
    <path class="cls-1" d="M206.62,307.7h4.94c2.71,0,4.17,1.44,4.17,3.48,0,1.68-1.01,2.77-2.19,3.1,1.01.28,2.69,1.28,2.69,3.5,0,2.83-2.13,4.09-4.6,4.09h-5.02v-14.18ZM211.19,313.8c2.45,0,3.38-.91,3.38-2.55,0-1.4-.97-2.53-2.96-2.53h-3.93v5.08h3.5ZM207.69,320.87h3.99c1.86,0,3.42-.93,3.42-3.02,0-1.8-1.15-3.04-4.01-3.04h-3.4v6.06Z"/>
    <path class="cls-1" d="M237.05,316.98l-1.8,4.9h-1.11l5.21-14.18h1.3l5.43,14.18h-1.19l-1.84-4.9h-5.97ZM242.66,315.97c-1.58-4.21-2.39-6.24-2.67-7.19h-.02c-.34,1.07-1.26,3.58-2.53,7.19h5.23Z"/>
    <path class="cls-1" d="M264.78,321.88v-14.18h1.62c2.21,3.4,7.39,11.32,8.28,12.86h.02c-.12-2.05-.1-4.13-.1-6.44v-6.42h1.11v14.18h-1.5c-2.11-3.28-7.37-11.52-8.38-13.08h-.02c.1,1.86.08,3.93.08,6.5v6.58h-1.11Z"/>
    <path class="cls-1" d="M328.04,318.09c-.67,2.25-2.33,3.95-5.33,3.95-4.07,0-6.22-3.24-6.22-7.23s2.11-7.31,6.24-7.31c3.06,0,4.86,1.7,5.33,4.07h-1.09c-.65-1.84-1.84-3.06-4.29-3.06-3.52,0-5,3.22-5,6.28s1.46,6.24,5.08,6.24c2.31,0,3.48-1.2,4.19-2.94h1.09Z"/>
    <polygon class="cls-1" points="347.29 307.7 348.39 307.7 348.39 320.87 356 320.87 355.8 321.88 347.29 321.88 347.29 307.7"/>
    <path class="cls-1" d="M385.87,314.69c0,3.87-2.07,7.39-6.44,7.39-3.99,0-6.32-3.22-6.32-7.29s2.25-7.29,6.46-7.29c3.89,0,6.3,3.06,6.3,7.19M374.29,314.73c0,3.26,1.8,6.34,5.21,6.34,3.67,0,5.21-3,5.21-6.36s-1.74-6.2-5.16-6.2c-3.65,0-5.25,3.02-5.25,6.22"/>
    <polygon class="cls-1" points="407.74 308.72 402.98 308.72 402.98 307.7 413.63 307.7 413.63 308.72 408.85 308.72 408.85 321.88 407.74 321.88 407.74 308.72"/>
    <polygon class="cls-1" points="431.94 307.7 433.03 307.7 433.03 313.88 441.54 313.88 441.54 307.7 442.63 307.7 442.63 321.88 441.54 321.88 441.54 314.89 433.03 314.89 433.03 321.88 431.94 321.88 431.94 307.7"/>
    <polygon class="cls-1" points="471.33 314.91 464.1 314.91 464.1 320.87 472.01 320.87 471.85 321.88 463 321.88 463 307.7 471.69 307.7 471.69 308.72 464.1 308.72 464.1 313.9 471.33 313.9 471.33 314.91"/>
    <path class="cls-1" d="M491.23,318.07c.43,1.88,1.68,3,4.01,3,2.59,0,3.58-1.3,3.58-2.84s-.71-2.59-3.83-3.36c-3-.75-4.29-1.72-4.29-3.77,0-1.86,1.36-3.61,4.39-3.61s4.44,1.9,4.62,3.63h-1.13c-.32-1.52-1.32-2.61-3.54-2.61-2.05,0-3.16.95-3.16,2.53s.93,2.17,3.54,2.81c3.99.99,4.58,2.59,4.58,4.29,0,2.09-1.52,3.89-4.8,3.89-3.54,0-4.84-2.07-5.1-3.97h1.13Z"/>
  </g>
</svg>