<?xml version="1.0" encoding="UTF-8"?>
<svg id="Layer_1" data-name="Layer 1" xmlns="http://www.w3.org/2000/svg" xmlns:xlink="http://www.w3.org/1999/xlink" viewBox="0 0 500 500">
  <defs>
    <style>
      .cls-1 {
        clip-path: url(#clippath);
      }

      .cls-2 {
        fill: none;
      }

      .cls-2, .cls-3, .cls-4, .cls-5, .cls-6, .cls-7 {
        stroke-width: 0px;
      }

      .cls-8 {
        filter: url(#drop-shadow-1);
      }

      .cls-3 {
        fill: #ece2cb;
      }

      .cls-4 {
        fill: #701312;
      }

      .cls-5 {
        fill: #fae29d;
      }

      .cls-6 {
        fill: #04351d;
      }

      .cls-7 {
        fill: #231f20;
      }
    </style>
    <filter id="drop-shadow-1" filterUnits="userSpaceOnUse">
      <feOffset dx="-2" dy="3"/>
      <feGaussianBlur result="blur" stdDeviation="2"/>
      <feFlood flood-color="#000" flood-opacity=".5"/>
      <feComposite in2="blur" operator="in"/>
      <feComposite in="SourceGraphic"/>
    </filter>
    <clipPath id="clippath">
      <polygon class="cls-2" points="399.75 176.21 424.64 133.41 384.23 101.88 384.6 45.92 324.43 45.74 299.72 0 250 25.64 200.28 0 175.57 45.74 115.4 45.92 115.77 101.88 75.36 133.41 100.25 176.21 77.1 222.49 124.08 249.48 122.48 300.9 178.07 300.9 205.83 346.17 248.34 319.55 251.66 319.55 294.17 346.17 321.93 300.9 377.52 300.9 375.92 249.48 422.9 222.49 399.75 176.21"/>
    </clipPath>
  </defs>
  <g>
    <g class="cls-8">
      <g class="cls-1">
        <g>
          <path class="cls-4" d="M443.4,37.7h-53.13l-19.25,13.81-5.34,3.83,11.14,31.82s0,.05.02.07l25.96,18.13,24.23-17.18,16.36-50.46Z"/>
          <polygon class="cls-4" points="48.76 208.15 81.66 208.15 92.17 176.81 79.62 144.98 47.17 145.27 4.36 176.69 48.76 208.15"/>
          <polygon class="cls-4" points="4.02 111.02 13.41 138.48 45.9 138.48 51.33 134.87 73.53 119.04 64.64 93.05 64.41 92.38 64.3 92.3 20.32 60.77 4.02 111.02"/>
          <path class="cls-4" d="M19.85,214.7l-8.66.08-8.95,27.6,17.39,50.86,32.48-22.67,11.24-7.85.2-.59,9.89-29.5-26.09-18.13-.91.07c-.24.02-.48,0-.71-.03h-10.29l-15.6.14Z"/>
          <path class="cls-6" d="M208.93,32.58l28.13-.21h.02c.09,0,.17.03.25.04.23.02.46.03.67.11.22.07.42.19.62.31.06.04.13.06.19.1.51.36.9.87,1.1,1.48l7.02,21.67,7.05-21.76c.1-.3.24-.58.42-.82.04-.05.1-.09.14-.14.15-.18.31-.36.51-.5.09-.07.21-.1.31-.16.17-.09.33-.2.51-.26.13-.04.26-.04.39-.07.17-.03.34-.08.52-.09h.51c.05,0,.1-.01.15-.01l9.74-.09,19.75-.19-39.09-27.7-38.92,28.29Z"/>
          <polygon class="cls-4" points="53.16 37.84 70.92 89.8 95.02 105.83 108.67 96.34 122.39 86.81 132.81 55.67 107.61 37.84 53.16 37.84"/>
          <polygon class="cls-4" points="387.36 31.43 431.2 0 347.06 0 357.59 31.43 387.36 31.43"/>
          <path class="cls-6" d="M6.6,210.21c.04-.05.1-.09.14-.14.15-.18.31-.36.51-.5.09-.07.21-.1.31-.16.17-.09.33-.2.51-.26.13-.04.26-.04.39-.07.17-.03.34-.08.52-.09h.51c.05,0,.1-.01.15-.01l9.73-.09,19.76-.19L.04,181.01l-.03.03v49.03l6.17-19.03c.1-.3.24-.58.42-.82Z"/>
          <polygon class="cls-4" points="167.71 321.51 158.28 352.99 158.41 353.45 243.49 353.45 199.5 321.48 167.71 321.51"/>
          <path class="cls-4" d="M143.83,330.73s0,0,0-.01h0s-3.11-9.24-3.11-9.24h-29.64s-46.49,31.97-46.49,31.97h86.86s-.02-.03-.03-.05l-7.58-22.67Z"/>
          <path class="cls-6" d="M11.27,144.28c-1.28,0-2.42-.8-2.82-1.98L.97,120.43,0,123.43v48.96l38.3-28.11H11.27Z"/>
          <polygon class="cls-4" points="387.39 322.03 357.61 322.03 347.06 353.45 347.06 353.45 431.2 353.45 431.2 353.45 387.39 322.03"/>
          <path class="cls-6" d="M484.87,209.09h.02c1.3,0,2.44.82,2.84,2.03l7.01,21.67.88-2.72v-49.03l-38.88,28.27,28.13-.21Z"/>
          <path class="cls-6" d="M486.69,144.28h-29.76l38.69,28.12h.01v-48.97l-6.11,18.83c-.39,1.21-1.54,2.03-2.84,2.03Z"/>
          <path class="cls-4" d="M110.49,31.57l30.29.21,6.83-20.38s.03-.06.04-.09L151.41.07s.02-.04.03-.06c0,0,0,0,0,0h-86.86s45.91,31.57,45.91,31.57Z"/>
          <polygon class="cls-4" points="294.98 321.99 252.17 353.41 252.22 353.45 339.95 353.45 327.43 321.7 294.98 321.99"/>
          <g>
            <path class="cls-5" d="M270.75,210.18c.39-1.21,1.54-2.03,2.84-2.03h18.93l-6.04-17.65s0-.05-.01-.07c-.08-.26-.13-.52-.13-.79,0-.04,0-.08,0-.12,0-.27.04-.53.12-.79,0-.03.02-.06.03-.09.09-.26.21-.5.37-.73.01-.02.03-.03.04-.05.17-.23.38-.44.63-.62l14.68-10.52-15.01-10.76c-1.05-.75-1.48-2.09-1.05-3.29l6.34-17.82-19.26.46s-.05,0-.07,0c-1.28,0-2.41-.8-2.82-1.98l-5.97-17.45-14.79,10.6c-.78.56-1.78.7-2.67.42-.3-.09-.58-.23-.84-.42l-15.39-11.02-5.79,17.83c-.39,1.21-1.54,2.03-2.83,2.03h-18.91l6.04,17.63c.41,1.2-.02,2.51-1.06,3.26l-14.68,10.52,15.01,10.76c1.03.74,1.46,2.03,1.07,3.21l-5.66,17.46h18.63c1.28,0,2.42.8,2.82,1.98l5.97,17.44,14.8-10.59c.52-.38,1.14-.56,1.76-.56s1.24.19,1.76.56l15.39,11.03,5.78-17.84Z"/>
            <path class="cls-3" d="M38.34,339.4l6.34-17.82-19.26.46s-.05,0-.07,0c-1.28,0-2.41-.8-2.82-1.98l-5.97-17.45-14.79,10.6c-.53.38-1.15.55-1.77.55v39.7h54.39l-15.01-10.76c-1.05-.75-1.48-2.09-1.05-3.29Z"/>
            <path class="cls-3" d="M1.77,40.26l15.39,11.03,5.78-17.84c.39-1.21,1.54-2.03,2.84-2.03h18.93l-6.04-17.65s0-.05-.01-.07c-.08-.26-.13-.52-.13-.79,0-.04,0-.08,0-.12,0-.27.04-.53.12-.79.01-.03.02-.06.04-.09.09-.26.21-.5.37-.73.01-.02.03-.03.04-.05.17-.23.38-.45.63-.62L54.4,0H0v39.7s0,0,0,0c.62,0,1.24.19,1.76.56Z"/>
            <path class="cls-3" d="M441.24,0l15.01,10.76c1.03.74,1.46,2.03,1.07,3.21l-5.66,17.46h18.62c1.28,0,2.42.8,2.82,1.98l5.97,17.44,14.8-10.59c.52-.37,1.14-.56,1.75-.56V0h-54.38Z"/>
            <path class="cls-3" d="M493.87,313.2l-15.39-11.02-5.79,17.83c-.39,1.21-1.54,2.03-2.83,2.03h-18.91l6.04,17.64c.41,1.2-.02,2.51-1.06,3.26l-14.68,10.52h54.38v-39.7c-.31,0-.61-.03-.91-.12-.3-.09-.58-.23-.84-.42Z"/>
          </g>
          <polygon class="cls-4" points="442.53 315.76 429.38 277.3 424.71 263.63 402.56 247.94 376.13 266.73 365.63 298.08 390.3 315.76 442.53 315.76"/>
          <path class="cls-6" d="M286.11,321h-27.03c-1.28,0-2.42-.8-2.82-1.98l-7.47-21.87-7.08,21.82c-.39,1.21-1.54,2.03-2.84,2.03h-29.76l38.69,28.12,38.31-28.12Z"/>
          <polygon class="cls-4" points="167.92 33.59 181.15 33.18 199.14 32.25 243.49 0 158.41 0 167.24 31.49 167.92 33.59"/>
          <polygon class="cls-4" points="118.43 307.96 132.81 297.78 122.4 266.65 95.07 247.67 69.87 265.33 53.15 315.2 108.21 315.2 118.43 307.96"/>
          <g>
            <path class="cls-6" d="M354.76,37.57c-.06-.02-.11-.03-.16-.05-.26-.09-.5-.21-.72-.36-.03-.02-.05-.04-.08-.06-.92-.27-1.68-.95-1.99-1.87l-8.12-24.22-8.27,24.69c-.4,1.19-1.54,2-2.83,2h-27.02l21.88,15.21c1.06.74,1.51,2.06,1.1,3.27l-7.24,21.59,19-13.32c.26-.18.54-.32.83-.41.08-.02.16-.02.24-.04.22-.05.44-.1.66-.1,0,0,0,0,0,0,.15,0,.3.05.46.07.15.02.29.02.44.07.29.09.57.22.83.4l.08.06s.03,0,.04,0c.29.09.57.22.83.4l22.26,15.46-8.64-25.67c-.04-.13-.08-.25-.1-.38-.01-.03,0-.07-.02-.1,0-.02,0-.04,0-.06-.3-1.15.13-2.37,1.12-3.07l19.1-13.4h-22.86c-.29,0-.57-.05-.83-.13Z"/>
            <path class="cls-6" d="M423.53,98.97l-18.15,12.87c-.26.18-.54.32-.84.42-.03,0-.06,0-.09.01-.27.07-.54.12-.81.12,0,0,0,0,0,0-.15,0-.29-.04-.43-.06-.16-.02-.31-.02-.47-.07-.29-.09-.57-.23-.83-.41l-.08-.06c-.31-.09-.61-.22-.88-.42l-21.49-15.01,8.45,25.03c.1.29.15.6.15.91v.33h0s0,.02,0,.03c0,.2-.03.4-.07.59-.01.06-.03.11-.05.17,0,.01,0,.02,0,.03-.01.04-.02.08-.03.11-.03.1-.08.19-.12.28-.03.05-.05.11-.08.16-.05.09-.1.17-.16.25-.03.04-.06.08-.09.12-.03.04-.06.08-.09.12,0,0,0,.01-.01.02-.13.15-.29.29-.46.41-.02.02-.04.04-.06.05l-19.05,13.49h22.75c.66,0,1.26.22,1.76.59.03,0,.05.01.08.02.01,0,.03,0,.04,0,.06.02.11.06.17.08.19.07.38.16.55.28.07.05.14.1.21.15.08.06.17.11.25.18.08.09.15.18.23.27.03.04.07.07.09.11.02.02.04.04.05.06.1.16.19.32.27.49.02.04.03.09.04.13.01.03.03.05.04.08l7.96,23.74,7.21-24.09c.37-1.23,1.52-2.08,2.83-2.09l5.53-.04h21.76l-3.8-2.71-17.97-12.58c-.78-.55-1.23-1.42-1.24-2.33,0-.3.04-.61.14-.91l6.8-20.98Z"/>
            <path class="cls-6" d="M73.5,254.49l19-13.31c.26-.18.54-.32.84-.41.07-.02.14-.02.21-.03.23-.05.46-.11.7-.11,0,0,0,0,0,0,.16,0,.32.05.48.07.14.02.28.02.41.06.29.09.57.22.83.4l.09.06s.03,0,.04,0c.29.09.57.22.83.4l22.26,15.46-8.64-25.67c-.04-.13-.08-.25-.1-.38-.01-.03,0-.07-.02-.1,0-.02,0-.04,0-.06-.3-1.15.13-2.37,1.12-3.07l19.1-13.39h-22.86c-.29,0-.57-.05-.83-.13-.06-.02-.11-.03-.16-.05-.26-.09-.5-.21-.72-.36-.03-.02-.05-.04-.08-.07-.92-.27-1.68-.95-1.99-1.87l-8.12-24.22-8.27,24.69c-.4,1.19-1.54,2-2.83,2h-27.02l21.89,15.21c1.06.74,1.51,2.06,1.1,3.27l-7.24,21.59Z"/>
            <path class="cls-6" d="M415.65,230.58c.04-.11.12-.21.17-.32.08-.16.15-.32.26-.46.08-.1.19-.17.28-.26.12-.12.22-.25.36-.35l19.68-13.72-7.28.23-15.49.8c-1.41.07-2.66-.82-3.02-2.13l-1.26-4.49-7.02-21.68-2.13,6.73-5.8,17.4c-.27.82-.9,1.43-1.68,1.75-.08.03-.14.08-.22.11-.03,0-.06,0-.09.01-.51.38-1.13.6-1.8.6l-23.33-.16,19.54,13.84c.24.17.43.37.6.59.05.06.09.13.13.2.11.17.2.35.28.54.03.07.06.14.08.22.08.26.13.52.13.79h0c0,.31-.05.62-.15.92l-8.51,25.3,21.26-15.11c.28-.2.58-.33.9-.43l.06-.05c1.04-.74,2.45-.74,3.5,0l16.5,11.68-3.47-11.96-2.36-6.91c-.1-.3-.15-.6-.15-.91h0c0-.19.05-.36.08-.53,0,0,0-.02,0-.02l-.13-.44c-.09-.3-.12-.6-.11-.9,0-.1.04-.19.05-.28.03-.2.05-.4.12-.58Z"/>
            <path class="cls-6" d="M144.91,37.35c-.08.03-.14.08-.22.11-.03,0-.06,0-.09.01-.51.38-1.13.6-1.8.6l-23.33-.16,19.54,13.84c.24.17.43.37.6.59.05.06.09.13.13.2.11.17.21.35.28.54.03.07.06.14.08.22.08.26.13.52.13.79h0c0,.31-.05.62-.15.92l-8.51,25.3,21.26-15.11c.28-.2.58-.33.89-.43l.06-.05c1.04-.74,2.45-.74,3.5,0l16.5,11.68-3.46-11.93-2.37-6.94c-.1-.3-.15-.6-.15-.91h0c0-.19.05-.36.08-.53,0,0,0-.02,0-.03l-.13-.43c-.09-.3-.12-.6-.11-.9,0-.1.04-.19.05-.28.03-.2.05-.4.12-.58.04-.11.12-.21.17-.32.08-.16.15-.32.26-.46.08-.1.19-.17.28-.26.12-.12.22-.25.36-.35l19.68-13.72-7.21.23-15.56.8c-1.4.06-2.66-.82-3.02-2.13l-1.26-4.49-7.02-21.68-2.13,6.73-5.8,17.39c-.27.82-.9,1.43-1.68,1.75Z"/>
            <path class="cls-6" d="M62.58,134.42h-.02s0,.01,0,.01l-6.75,4.48,26.77-.23h.03c1.23,0,2.33.74,2.77,1.86l10.23,25.96,8.38-24.99c.31-.93,1.09-1.61,2.02-1.87.51-.37,1.13-.6,1.79-.6h23.02l-6.8-4.88-12.39-8.88s0,0,0,0c-.05-.04-.1-.09-.15-.13-.07-.06-.15-.12-.21-.19-.05-.05-.1-.11-.15-.17-.06-.07-.12-.14-.17-.21-.04-.06-.08-.12-.12-.19-.05-.08-.09-.16-.13-.24-.03-.07-.06-.13-.09-.2-.03-.09-.06-.17-.09-.26-.02-.07-.04-.13-.05-.2-.02-.09-.03-.19-.04-.29,0-.07-.02-.13-.02-.2,0-.11,0-.22.01-.33,0-.06,0-.11.01-.17.02-.16.06-.33.11-.49l8.64-25.66-22.26,15.46c-.26.18-.53.31-.82.4-.01,0-.03,0-.05,0l-.09.06c-.26.18-.53.31-.82.4-.1.03-.2.03-.31.05-.19.04-.39.09-.58.09,0,0,0,0-.01,0-.09,0-.18-.03-.27-.04-.21-.02-.41-.03-.61-.09-.11-.03-.21-.1-.31-.15-.16-.07-.33-.12-.48-.22l-18.05-11.99,6.3,18.4c.41,1.19-.02,2.5-1.05,3.25l-17.19,12.43Z"/>
            <path class="cls-6" d="M330.42,315.4c1.23,0,2.33.74,2.77,1.86l10.23,25.96,8.38-24.99c.31-.93,1.09-1.61,2.02-1.87.5-.37,1.12-.6,1.79-.6h23.02l-6.8-4.88-12.39-8.88s0,0,0,0c-.05-.04-.1-.09-.15-.13-.06-.05-.12-.1-.18-.15-.02-.02-.03-.04-.05-.05-.05-.05-.09-.1-.13-.15-.05-.06-.1-.11-.15-.18-.02-.03-.04-.05-.06-.08-.03-.05-.06-.1-.09-.14-.04-.07-.08-.13-.11-.2-.02-.04-.04-.07-.06-.11-.02-.04-.03-.08-.05-.13-.03-.08-.06-.15-.08-.23-.01-.05-.03-.09-.04-.13,0-.03-.01-.07-.02-.1-.02-.09-.03-.17-.04-.26,0-.05-.02-.1-.02-.15,0-.02,0-.05,0-.07,0-.1,0-.21.01-.31,0-.05,0-.09,0-.14,0-.01,0-.02,0-.04.02-.16.06-.33.11-.49l8.64-25.66-22.26,15.46c-.26.18-.53.31-.82.4-.02,0-.03,0-.05,0l-.09.06c-.25.18-.53.31-.82.4-.11.03-.23.03-.34.05-.18.03-.36.08-.55.08,0,0-.01,0-.02,0-.11,0-.21-.04-.32-.05-.19-.02-.37-.03-.55-.08-.12-.04-.23-.11-.34-.16-.15-.07-.31-.12-.46-.21l-18.04-11.99,6.3,18.4c.41,1.19-.02,2.5-1.05,3.25l-17.21,12.45-6.75,4.48,26.77-.23h.03Z"/>
            <path class="cls-6" d="M144.47,315.79s.06.01.09.02c.01,0,.02,0,.04,0,.05.02.1.05.15.07.2.08.38.17.56.28.08.05.16.12.24.18.07.06.16.1.23.17.08.08.16.18.23.27.03.03.05.06.08.09.02.02.04.04.06.07.1.16.19.33.27.51.02.04.02.08.04.12.01.03.04.06.05.09l7.96,23.74,7.21-24.09c.37-1.23,1.52-2.08,2.83-2.09l5.53-.04h21.76l-3.76-2.68-18.01-12.62c-1.05-.73-1.49-2.04-1.1-3.23l6.8-20.98-18.15,12.87c-.26.18-.54.32-.84.41-.12.04-.24.03-.36.06-.18.03-.36.08-.55.08,0,0,0,0,0,0-.23,0-.45-.05-.68-.1-.07-.02-.15-.01-.22-.03-.29-.09-.58-.23-.84-.41l-.08-.06s-.03,0-.05,0c0,0-.02,0-.02-.01-.28-.09-.56-.22-.81-.39l-21.49-15.01,8.45,25.03c.1.29.15.6.15.91v.33h0s0,.03,0,.03c0,.2-.03.4-.07.59-.01.06-.03.11-.05.17,0,.01,0,.02,0,.03-.01.04-.02.08-.03.11-.03.1-.08.19-.12.28-.03.05-.05.11-.08.16-.05.09-.1.17-.16.25-.03.04-.06.08-.09.12-.03.04-.06.08-.09.12,0,0,0,.01-.01.02-.14.15-.29.29-.46.41-.02.02-.03.04-.06.05l-19.05,13.49h22.75c.65,0,1.26.22,1.76.59Z"/>
          </g>
          <g>
            <polygon class="cls-4" points="342.83 282.55 370.21 263.54 380.62 232.39 355.42 214.56 300.97 214.56 318.73 266.53 342.83 282.55"/>
            <polygon class="cls-4" points="370.21 89.93 342.88 70.94 317.68 88.6 300.96 138.48 356.02 138.48 380.62 121.06 370.21 89.93"/>
            <path class="cls-4" d="M388.59,208.5l6.83-20.38s.03-.05.04-.08l3.76-11.25s.02-.04.03-.06c0-.02-.02-.04-.03-.06l-7.58-22.67s0,0,0-.01h0s-3.11-9.24-3.11-9.24h-29.64l-46.49,31.97,45.91,31.57,30.29.21Z"/>
            <path class="cls-4" d="M294.26,37.87c-.24.02-.48,0-.71-.03h-10.29l-15.6.14-8.66.08-8.94,27.6,17.39,50.86,32.48-22.67,11.24-7.85.2-.59,9.89-29.5-26.09-18.13-.91.07Z"/>
            <polygon class="cls-4" points="174.51 57.52 176.02 62.75 183.19 83.71 183.42 84.37 188.05 87.69 227.51 115.98 243.81 65.69 234.91 38.19 200.86 38.45 174.51 57.52"/>
            <polygon class="cls-4" points="109.8 145.31 99.25 176.72 109.78 208.15 139.55 208.15 183.39 176.72 139.58 145.31 109.8 145.31"/>
            <path class="cls-4" d="M129.03,263.94l25.96,18.13,24.23-17.18,16.36-50.46h-53.13s-24.59,17.64-24.59,17.64l11.14,31.82s0,.04.01.07Z"/>
            <polygon class="cls-4" points="176.89 86.9 154.75 71.22 128.32 90 117.82 121.36 142.48 139.03 194.72 139.04 182.98 104.7 176.89 86.9"/>
            <polygon class="cls-4" points="299.11 311.61 321.34 295.76 312.45 269.78 312.22 269.1 312.11 269.03 268.14 237.49 251.84 287.74 261.22 315.2 293.71 315.2 299.11 311.61"/>
            <polygon class="cls-4" points="236.7 315.2 245.58 287.79 228.21 236.97 216.97 245.03 185.75 267.41 185.56 268.02 176.19 296.91 191.37 307.72 202.05 315.2 236.7 315.2"/>
          </g>
          <polygon class="cls-4" points="329.48 31.43 339.98 .08 339.95 0 252.22 0 296.57 31.43 329.48 31.43"/>
          <polygon class="cls-4" points="491.63 242.41 482.72 214.91 448.67 215.17 422.32 234.24 423.83 239.44 431 260.43 431.23 261.1 475.32 292.7 491.63 242.41"/>
          <polygon class="cls-4" points="493.4 111.07 478.46 67.39 476.02 60.24 464.78 68.3 433.57 90.69 433.37 91.3 424 120.19 439.19 131 449.86 138.48 484.51 138.48 493.4 111.07"/>
          <g>
            <polygon class="cls-6" points="22.22 54.92 61.12 82.81 45.44 37.23 27.95 37.23 22.22 54.92"/>
            <polygon class="cls-6" points="53.01 31.57 100.34 31.69 59.46 3.57 57.25 5.16 45.14 13.83 53.01 31.57"/>
            <polygon class="cls-6" points="45.59 315.75 60.24 272.05 21.61 299.01 27.47 316.18 45.59 315.75"/>
            <g>
              <polygon class="cls-6" points="293.26 213.95 275.76 213.95 270.03 231.65 308.93 259.54 293.26 213.95"/>
              <polygon class="cls-6" points="275.29 139.46 293.4 139.03 308.05 95.32 269.42 122.29 275.29 139.46"/>
              <polygon class="cls-6" points="348.56 144.75 298.82 144.75 292.49 162.56 307.27 173.15 348.56 144.75"/>
              <polygon class="cls-6" points="300.82 208.29 348.15 208.41 307.27 180.3 305.06 181.88 292.96 190.55 300.82 208.29"/>
              <polygon class="cls-6" points="203.21 190.93 188.41 180.32 149.59 208.15 197.62 208.15 203.21 190.93"/>
              <polygon class="cls-6" points="233.24 233.36 248.64 278.38 263.08 233.86 247.82 222.92 233.24 233.36"/>
              <polygon class="cls-6" points="225.61 121.82 219.61 117.52 186.68 93.91 202.27 139.51 219.87 139.51 225.61 121.82"/>
              <polygon class="cls-6" points="226.23 231.18 220.34 213.95 203.09 213.95 188.8 258.03 205.12 246.32 226.23 231.18"/>
              <polygon class="cls-6" points="196.87 145.31 149.62 145.31 188.41 173.12 202.85 162.78 196.87 145.31"/>
              <polygon class="cls-6" points="262.4 120.09 247.01 75.08 232.57 119.61 247.82 130.54 262.4 120.09"/>
            </g>
            <polygon class="cls-6" points="14.59 296.81 0 254.16 0 307.26 0 307.26 14.59 296.81"/>
            <polygon class="cls-6" points="15.26 57.14 0 46.2 0 46.2 0 99.25 .82 101.66 15.26 57.14"/>
            <polygon class="cls-6" points="491.44 87.02 495.63 99.25 495.63 46.2 481.05 56.63 491.44 87.02"/>
            <polygon class="cls-6" points="480.38 296.33 495.63 307.25 495.63 254.16 494.82 251.8 480.38 296.33"/>
            <polygon class="cls-6" points="450.66 339.5 444.68 322.03 397.43 322.03 436.22 349.85 450.66 339.5"/>
            <polygon class="cls-6" points="59.46 349.87 100.75 321.47 51.01 321.47 44.67 339.28 59.46 349.87"/>
            <polygon class="cls-6" points="450.9 37.23 436.61 81.3 452.93 69.6 474.04 54.46 468.15 37.23 450.9 37.23"/>
            <polygon class="cls-6" points="397.4 31.43 445.43 31.43 451.02 14.2 436.22 3.6 397.4 31.43"/>
            <polygon class="cls-6" points="473.42 298.55 458.93 288.16 434.49 270.63 450.08 316.23 467.68 316.23 473.42 298.55"/>
          </g>
          <polygon class="cls-4" points="447.31 144.75 415.52 144.78 406.1 176.27 415.05 208.22 415.73 210.31 428.93 209.9 446.95 208.97 491.3 176.72 447.31 144.75"/>
        </g>
      </g>
    </g>
    <g>
      <polygon class="cls-6" points="256.58 163.35 252.93 163.35 249.81 153.9 242.19 176.2 239.28 174.02 249.86 143.03 256.58 163.35"/>
      <polygon class="cls-6" points="218.65 165.12 240.37 165.12 239.24 168.58 229.07 168.58 238.68 175.76 238.68 175.76 239.01 176 249.03 183.49 245.97 185.58 218.65 165.12"/>
      <polygon class="cls-6" points="229.33 203.14 236.91 180.93 239.83 183.12 235.9 194.61 256.7 180.32 257.73 183.47 229.33 203.14"/>
      <polygon class="cls-6" points="252.01 190.03 254.9 187.86 263.02 193.87 258.56 180.41 258.04 178.83 258.04 178.83 255.23 170.36 258.89 170.35 261.22 177.38 262.11 180.05 262.1 180.06 269.73 203.14 252.01 190.03"/>
      <polygon class="cls-6" points="263.58 178.91 262.43 175.42 271.24 168.58 246.64 168.58 247.93 165.12 253.51 165.12 253.51 165.1 257.16 165.1 257.16 165.12 281.35 165.12 263.58 178.91"/>
    </g>
  </g>
  <g>
    <path class="cls-7" d="M58.72,458.14v-5.07c2.54-.15,4.36-.69,5.48-1.61,1.11-.92,1.82-2.3,2.13-4.15.31-1.84.46-4.19.46-7.03v-47.95c0-1.69.04-3.32.12-4.9.08-1.57.15-2.94.23-4.09-1.31.08-2.73.16-4.27.23-1.54.08-2.92.16-4.15.23v-6.34h28.36v5.07c-2.46.08-4.26.6-5.42,1.56-1.15.96-1.88,2.35-2.19,4.15-.31,1.81-.46,4.17-.46,7.09v47.72c0,2.07-.02,3.9-.06,5.48-.04,1.58-.14,2.86-.29,3.86l19.48-.23c4.76-.08,8.41-1.63,10.95-4.67,2.54-3.04,3.8-7.86,3.8-14.47h5.19l-.69,25.13h-58.67Z"/>
    <path class="cls-7" d="M120.38,404.54l-3.57-2.65c.84-1.08,1.75-2.61,2.71-4.61.96-2,1.77-4.21,2.42-6.63.65-2.42.87-4.78.63-7.09-.54.23-1.02.39-1.44.46-.42.08-.86.12-1.33.12-1.61,0-3.04-.56-4.26-1.67-1.23-1.11-1.84-2.63-1.84-4.55,0-2.23.67-4.01,2.02-5.36,1.34-1.34,2.98-2.02,4.9-2.02,3,0,5.25,1.06,6.74,3.17,1.5,2.11,2.25,4.75,2.25,7.9,0,2.07-.37,4.5-1.1,7.26-.73,2.77-1.79,5.52-3.17,8.24-1.38,2.73-3.04,5.21-4.96,7.43Z"/>
    <path class="cls-7" d="M140.09,458.14v-5.07c2.54-.15,4.36-.69,5.48-1.61,1.11-.92,1.83-2.3,2.13-4.15.31-1.84.46-4.19.46-7.03v-47.95c0-1.69.04-3.32.12-4.9.08-1.57.15-2.94.23-4.09-1.31.08-2.73.16-4.27.23-1.54.08-2.92.16-4.15.23v-6.34h28.36v5.07c-2.46.08-4.27.6-5.42,1.56-1.15.96-1.89,2.35-2.19,4.15-.31,1.81-.46,4.17-.46,7.09v18.79h38.15v-21.79c0-1.69.04-3.32.11-4.9.08-1.57.15-2.94.23-4.09-1.31.08-2.73.16-4.27.23-1.54.08-2.92.16-4.15.23v-6.34h28.36v5.07c-2.46.08-4.27.6-5.42,1.56-1.15.96-1.88,2.35-2.19,4.15-.31,1.81-.46,4.17-.46,7.09v47.38c0,2.07-.02,3.94-.06,5.59-.04,1.65-.14,2.98-.29,3.98,1.31-.15,2.73-.25,4.27-.29,1.54-.04,2.92-.09,4.15-.17v6.34h-28.36v-5.07c2.54-.15,4.36-.69,5.48-1.61,1.11-.92,1.82-2.3,2.13-4.15.31-1.84.46-4.19.46-7.03v-20.17l-38.15.35v22.25c0,2.07-.02,3.94-.06,5.59-.04,1.65-.14,2.98-.29,3.98,1.31-.15,2.75-.25,4.32-.29,1.57-.04,2.94-.09,4.09-.17v6.34h-28.36Z"/>
    <path class="cls-7" d="M224.58,458.14v-5.19c2.3,0,4.07-.61,5.3-1.84s2.26-2.9,3.11-5.01c.84-2.11,1.77-4.48,2.77-7.09l23.28-63.74h4.61l25.24,64.67c.61,1.46,1.31,3.44,2.07,5.94.77,2.5,1.11,4.63,1.04,6.4,1.31-.15,2.59-.25,3.86-.29,1.27-.04,2.48-.09,3.63-.17v6.34h-28.01v-5.07c2.69-.08,4.47-.67,5.36-1.79.88-1.11,1.23-2.48,1.04-4.09-.19-1.61-.6-3.23-1.21-4.84l-3.46-9.34-28.24.69-3.34,10.03c-.46,1.54-.96,3-1.5,4.38-.54,1.38-1.08,2.73-1.61,4.03,1.38-.15,2.86-.25,4.44-.29,1.57-.04,2.98-.09,4.21-.17v6.45h-22.59ZM247.06,427.48h24.21l-7.26-19.48c-.92-2.54-1.81-5.05-2.65-7.55-.85-2.5-1.61-4.9-2.3-7.2h-.12c-.62,1.92-1.31,4.03-2.07,6.34-.77,2.31-1.65,4.8-2.65,7.49l-7.15,20.4Z"/>
    <path class="cls-7" d="M317.83,458.14v-5.07c2.54-.15,4.34-.69,5.42-1.61,1.07-.92,1.77-2.32,2.07-4.21.31-1.88.46-4.21.46-6.97l.12-12.1-20.52-32.28c-1.61-2.69-2.9-5.07-3.86-7.15-.96-2.07-1.52-3.8-1.67-5.19-1.23.08-2.38.12-3.46.12s-2.15.04-3.23.12v-6.34h31.12v5.07c-3.08-.08-5.32.35-6.74,1.27-1.42.92-2.06,2.25-1.9,3.98.15,1.73.92,3.75,2.3,6.05l9.11,14.52c.61.92,1.3,2,2.07,3.23.77,1.23,1.56,2.48,2.36,3.75.81,1.27,1.56,2.56,2.25,3.86h.23c.69-1.46,1.48-3.01,2.36-4.67.88-1.65,1.79-3.48,2.71-5.48l8.53-16.25c.38-.77.88-1.73,1.5-2.88.61-1.15,1.29-2.32,2.02-3.52.73-1.19,1.48-2.17,2.25-2.94-1.38.08-2.9.14-4.55.17-1.65.04-3.13.1-4.44.17v-6.34h24.09v5.07c-3.38.31-6.21,1.56-8.47,3.75-2.27,2.19-4.67,5.63-7.2,10.32-2.54,4.84-5.03,9.59-7.49,14.24-2.46,4.65-4.84,9.2-7.15,13.66,0,1.23-.02,2.81-.06,4.73-.04,1.92-.06,3.84-.06,5.76v7.72c0,2.07-.02,3.94-.06,5.59-.04,1.65-.14,2.98-.29,3.98,1.54-.15,3.17-.25,4.9-.29,1.73-.04,3.24-.09,4.55-.17v6.34h-29.28Z"/>
    <path class="cls-7" d="M435.87,402.35c-.08-4.38-.58-8.03-1.5-10.95-.92-2.92-2.44-5.11-4.55-6.57-2.11-1.46-5.01-2.15-8.7-2.07h-8.3l-.12,59.94c0,2.07-.02,3.94-.06,5.59-.04,1.65-.14,2.98-.29,3.98,1.46-.15,3.05-.25,4.78-.29,1.73-.04,3.28-.09,4.67-.17v6.34h-29.28v-5.07c2.54-.15,4.34-.69,5.42-1.61,1.07-.92,1.77-2.32,2.07-4.21.31-1.88.46-4.21.46-6.97v-57.4l-9.68.12c-4.69,0-8.11,1.58-10.26,4.73-2.15,3.15-3.23,8.03-3.23,14.64h-5.42l.69-24.9h68.01l.69,24.9h-5.42Z"/>
  </g>
  <g>
    <polygon class="cls-7" points="141.77 482.94 134.83 494.79 127.8 482.94 125.82 482.94 125.82 499.81 128.13 499.81 128.13 487.58 134.23 497.76 135.34 497.76 141.44 487.51 141.46 499.81 143.77 499.81 143.75 482.94 141.77 482.94"/>
    <path class="cls-7" d="M153.92,482.94l-7.64,16.87h2.48l1.85-4.22h8.97l1.85,4.22h2.53l-7.66-16.87h-2.38ZM151.46,493.66l3.64-8.28,3.64,8.28h-7.27Z"/>
    <path class="cls-7" d="M178.33,484c-1.37-.71-2.96-1.06-4.76-1.06h-7.11v16.87h7.11c1.8,0,3.39-.35,4.76-1.06,1.37-.71,2.44-1.7,3.21-2.96.76-1.27,1.14-2.74,1.14-4.41s-.38-3.14-1.14-4.41c-.77-1.27-1.83-2.26-3.21-2.96ZM179.43,494.69c-.56.96-1.35,1.7-2.37,2.23-1.02.53-2.23.8-3.63.8h-4.55v-12.67h4.55c1.4,0,2.61.27,3.63.8,1.02.53,1.81,1.27,2.37,2.22s.84,2.06.84,3.32-.28,2.36-.84,3.31Z"/>
    <polygon class="cls-7" points="188.78 492.27 197.23 492.27 197.23 490.22 188.78 490.22 188.78 485.04 198.27 485.04 198.27 482.94 186.37 482.94 186.37 499.81 198.61 499.81 198.61 497.71 188.78 497.71 188.78 492.27"/>
    <rect class="cls-7" x="208.99" y="482.94" width="2.41" height="16.87"/>
    <polygon class="cls-7" points="228.56 495.51 218.44 482.94 216.46 482.94 216.46 499.81 218.87 499.81 218.87 487.24 228.99 499.81 230.97 499.81 230.97 482.94 228.56 482.94 228.56 495.51"/>
    <polygon class="cls-7" points="258.46 482.94 251.51 494.79 244.48 482.94 242.51 482.94 242.51 499.81 244.82 499.81 244.82 487.59 250.92 497.76 252.02 497.76 258.12 487.51 258.15 499.81 260.46 499.81 260.43 482.94 258.46 482.94"/>
    <path class="cls-7" d="M279.54,485.19c-.8-.78-1.75-1.38-2.84-1.81-1.09-.42-2.28-.64-3.57-.64s-2.5.22-3.59.65c-1.09.43-2.04,1.04-2.84,1.82-.8.78-1.43,1.69-1.88,2.73s-.68,2.18-.68,3.42.23,2.38.68,3.42,1.07,1.96,1.88,2.73c.8.78,1.76,1.39,2.86,1.82,1.1.43,2.29.65,3.58.65s2.47-.21,3.57-.64c1.09-.43,2.04-1.03,2.84-1.81.8-.78,1.43-1.69,1.87-2.73.44-1.04.66-2.19.66-3.45s-.22-2.38-.66-3.43c-.44-1.05-1.06-1.97-1.87-2.75ZM279.16,493.95c-.33.79-.78,1.47-1.37,2.06-.59.59-1.28,1.04-2.07,1.36s-1.67.48-2.61.48-1.79-.16-2.59-.48c-.79-.32-1.49-.78-2.08-1.36-.59-.59-1.06-1.27-1.38-2.06-.33-.79-.5-1.65-.5-2.58s.16-1.79.5-2.57c.33-.78.79-1.47,1.38-2.06.6-.59,1.29-1.05,2.08-1.37.8-.32,1.66-.48,2.59-.48s1.82.16,2.61.48,1.49.78,2.07,1.37c.59.6,1.05,1.28,1.37,2.06.33.78.5,1.63.5,2.57s-.16,1.79-.5,2.58Z"/>
    <path class="cls-7" d="M296.11,493.98c1.05-.47,1.85-1.14,2.41-2.01.56-.87.84-1.92.84-3.14s-.28-2.27-.84-3.16c-.56-.88-1.36-1.56-2.41-2.02-1.04-.47-2.3-.7-3.78-.7h-6.58v16.87h2.41v-5.13h4.17c.37,0,.69-.06,1.04-.09l3.66,5.22h2.62l-4.03-5.68c.16-.06.34-.08.49-.15ZM292.26,492.63h-4.1v-7.59h4.1c1.54,0,2.71.33,3.51.99.79.66,1.19,1.59,1.19,2.79s-.4,2.14-1.19,2.81c-.79.67-1.97,1-3.51,1Z"/>
    <path class="cls-7" d="M317.29,485.19c-.8-.78-1.75-1.38-2.84-1.81-1.09-.42-2.28-.64-3.56-.64s-2.5.22-3.59.65c-1.09.43-2.04,1.04-2.84,1.82-.8.78-1.43,1.69-1.88,2.73-.45,1.04-.67,2.18-.67,3.42s.23,2.38.67,3.42c.45,1.04,1.08,1.96,1.88,2.73.8.78,1.75,1.39,2.85,1.82,1.1.43,2.29.65,3.58.65s2.47-.21,3.56-.64,2.04-1.03,2.84-1.81c.8-.78,1.43-1.69,1.87-2.73.44-1.04.66-2.19.66-3.45s-.22-2.38-.66-3.43c-.44-1.05-1.06-1.97-1.87-2.75ZM316.92,493.95c-.33.79-.79,1.47-1.37,2.06-.59.59-1.28,1.04-2.07,1.36s-1.67.48-2.62.48-1.79-.16-2.59-.48-1.49-.78-2.08-1.36c-.6-.59-1.06-1.27-1.39-2.06-.33-.79-.49-1.65-.49-2.58s.16-1.79.49-2.57c.33-.78.79-1.47,1.39-2.06.6-.59,1.29-1.05,2.08-1.37s1.66-.48,2.59-.48,1.82.16,2.62.48,1.48.78,2.07,1.37c.59.6,1.04,1.28,1.37,2.06.33.78.49,1.63.49,2.57s-.16,1.79-.49,2.58Z"/>
    <path class="cls-7" d="M326.42,486.72c.6-.58,1.3-1.03,2.11-1.35s1.69-.48,2.64-.48,1.78.17,2.58.5c.8.33,1.53.83,2.17,1.51l1.56-1.52c-.77-.87-1.7-1.52-2.81-1.96-1.1-.44-2.3-.66-3.6-.66s-2.47.21-3.55.64c-1.08.43-2.03,1.03-2.83,1.81-.8.78-1.43,1.69-1.88,2.73s-.68,2.19-.68,3.45.23,2.4.68,3.45,1.07,1.96,1.87,2.73c.8.78,1.74,1.38,2.82,1.81s2.27.64,3.55.64,2.53-.23,3.63-.68c1.1-.45,2.04-1.11,2.81-1.98l-1.56-1.52c-.64.69-1.37,1.2-2.17,1.53-.8.33-1.66.49-2.58.49s-1.83-.16-2.64-.48-1.52-.77-2.11-1.35c-.59-.58-1.06-1.26-1.38-2.06-.33-.79-.5-1.66-.5-2.59s.16-1.79.5-2.59c.33-.8.79-1.48,1.38-2.06Z"/>
    <path class="cls-7" d="M343.48,486.72c.6-.58,1.3-1.03,2.11-1.35s1.69-.48,2.64-.48,1.78.17,2.58.5c.8.33,1.53.83,2.17,1.51l1.56-1.52c-.77-.87-1.7-1.52-2.81-1.96-1.1-.44-2.3-.66-3.6-.66s-2.47.21-3.55.64c-1.08.43-2.03,1.03-2.83,1.81-.8.78-1.43,1.69-1.88,2.73s-.68,2.19-.68,3.45.23,2.4.68,3.45,1.07,1.96,1.87,2.73c.8.78,1.74,1.38,2.82,1.81s2.27.64,3.55.64,2.53-.23,3.63-.68c1.1-.45,2.04-1.11,2.81-1.98l-1.56-1.52c-.64.69-1.37,1.2-2.17,1.53-.8.33-1.66.49-2.58.49s-1.83-.16-2.64-.48-1.52-.77-2.11-1.35c-.59-.58-1.06-1.26-1.38-2.06-.33-.79-.5-1.66-.5-2.59s.16-1.79.5-2.59c.33-.8.79-1.48,1.38-2.06Z"/>
    <path class="cls-7" d="M373.52,487.94c-.44-1.05-1.06-1.97-1.87-2.75-.8-.78-1.75-1.38-2.84-1.81-1.09-.42-2.28-.64-3.57-.64s-2.5.22-3.59.65c-1.09.43-2.04,1.04-2.84,1.82-.8.78-1.43,1.69-1.88,2.73s-.68,2.18-.68,3.42.23,2.38.68,3.42,1.07,1.96,1.88,2.73c.8.78,1.76,1.39,2.86,1.82,1.1.43,2.29.65,3.58.65s2.47-.21,3.57-.64c1.09-.43,2.04-1.03,2.84-1.81.8-.78,1.43-1.69,1.87-2.73.44-1.04.66-2.19.66-3.45s-.22-2.38-.66-3.43ZM371.27,493.95c-.33.79-.78,1.47-1.37,2.06-.59.59-1.28,1.04-2.07,1.36s-1.67.48-2.61.48-1.79-.16-2.59-.48c-.79-.32-1.49-.78-2.08-1.36-.59-.59-1.06-1.27-1.38-2.06-.33-.79-.5-1.65-.5-2.58s.16-1.79.5-2.57c.33-.78.79-1.47,1.38-2.06.6-.59,1.29-1.05,2.08-1.37.8-.32,1.66-.48,2.59-.48s1.82.16,2.61.48,1.49.78,2.07,1.37c.59.6,1.05,1.28,1.37,2.06.33.78.5,1.63.5,2.57s-.16,1.79-.5,2.58Z"/>
  </g>
  <g>
    <rect class="cls-4" x="122.35" y="467.77" width="255.31" height="4.94"/>
    <rect class="cls-6" x="204.71" y="467.77" width="90.59" height="4.94"/>
  </g>
</svg>