<?xml version="1.0" encoding="UTF-8"?>
<svg id="Layer_1" data-name="Layer 1" xmlns="http://www.w3.org/2000/svg" xmlns:xlink="http://www.w3.org/1999/xlink" viewBox="0 0 500 500">
  <defs>
    <style>
      .cls-1 {
        filter: url(#drop-shadow-1);
      }

      .cls-2 {
        fill: #fff;
        stroke-width: 0px;
      }
    </style>
    <filter id="drop-shadow-1" filterUnits="userSpaceOnUse">
      <feOffset dx="3" dy="3"/>
      <feGaussianBlur result="blur" stdDeviation="4"/>
      <feFlood flood-color="#000" flood-opacity=".75"/>
      <feComposite in2="blur" operator="in"/>
      <feComposite in="SourceGraphic"/>
    </filter>
  </defs>
  <g class="cls-1">
    <path class="cls-2" d="M430.26,236.37c1.31,0,2.7-.66,4.15-1.98,2.77-1.84,4.15-3.82,4.15-5.93l-.2-1.18c-.66-3.42-2.64-5.14-5.93-5.14-3.56,0-5.99,1.91-7.31,5.73-.4,1.19-.59,2.11-.59,2.77s.26,1.45.79,2.37c1.31,2.24,2.96,3.36,4.94,3.36"/>
    <path class="cls-2" d="M498.62,281.81c-1.98,0-10.6,6.72-25.88,20.15-13.83,11.72-22.72,19.1-26.67,22.13-11.46,8.69-20.08,13.04-25.88,13.04-2.24,0-4.02-.66-5.33-1.98-2.11-3.42-3.16-9.02-3.16-16.79,0-10.8,2.3-24.82,6.91-42.08,2.37-8.56,4.54-15.41,6.52-20.55,1.45-3.69,2.17-6.25,2.17-7.7,0-.92-.46-1.65-1.38-2.17-.53-.66-1.12-.99-1.78-.99-5.27,0-9.75,4.48-13.43,13.43-3.47,8.06-6.32,15.99-8.55,23.81-1.08.27-2.31.59-3.7.98-4.48,1.25-7.84,1.94-10.08,2.07-.79,0-1.85-.2-3.16-.59-1.32-.4-1.98-2.04-1.98-4.94,0-4.08,1.81-11.62,5.43-22.62,3.62-11,5.43-16.89,5.43-17.68,0-1.71-1.19-2.7-3.56-2.96l-2.57-.2c-7.64.4-16.92,8.49-27.85,24.3-2.77,4.08-7.9,12.58-15.41,25.48-.79,1.19-1.25,1.78-1.38,1.78v-.39c2.37-10.54,3.56-17.58,3.56-21.14s-1.12-5.33-3.36-5.33c-1.45.13-2.7,1.52-3.75,4.15-1.35,3.37-3.3,10.47-5.84,21.3-.85.93-1.8,1.99-2.85,3.2-25.42,29.5-44.12,44.25-56.1,44.25-3.43,0-5.66-1.71-6.72-5.14-.4-1.71-.59-4.08-.59-7.11l.2-6.12c.66-8.82,3.69-21.66,9.09-38.52,3.29-9.22,4.94-14.82,4.94-16.79,0-.52-.13-1.02-.4-1.48-.27-.46-.56-.82-.89-1.09-.33-.26-.82-.4-1.48-.4-1.06,0-2.11.73-3.16,2.17-10.14,14.09-17.78,24.66-22.92,31.71-5.14,7.05-9.48,12.54-13.04,16.5-3.56,3.95-5.66,5.93-6.32,5.93,0-7.64,3.82-23.64,11.46-48.01,2.11-6.45,3.16-10.47,3.16-12.05,0-1.71-.79-2.57-2.37-2.57-.13,0-.53.03-1.19.1-.66.07-1.58.76-2.77,2.07-3.03,3.82-6.26,10.44-9.68,19.85-.56,1.53-1.09,3.06-1.61,4.59-.77.34-1.68.75-2.74,1.24-5.27,2.9-10.14,4.35-14.62,4.35-3.82,0-7.44-1.05-10.87-3.16l-4.54-2.37-.2-6.72c-.27-9.61-2.9-14.42-7.9-14.42-2.37,0-4.15,1.12-5.33,3.36-.66,1.19-.99,2.57-.99,4.15,0,1.19.16,2.34.49,3.46.33,1.12.66,2.11.99,2.96.33.86.66,1.52.99,1.98.33.46.49,1.02.49,1.68s-.2,1.91-.59,3.75c-2.5,13.17-7.97,24.5-16.4,33.98-3.03,3.43-5.6,5.14-7.7,5.14-3.56,0-5.33-5.27-5.33-15.8,0-6.45.59-11.39,1.78-14.82,3.69-13.56,10.67-23.24,20.94-29.04,1.98-1.18,3.49-1.78,4.54-1.78l1.58.2c1.45,0,2.17-.72,2.17-2.17,0-.92-.53-1.65-1.58-2.17-1.58-.66-3.03-.99-4.35-.99-.92,0-2.04.2-3.36.59-12.25,3.95-21.53,13.37-27.85,28.25-.45,1.19-.87,2.37-1.25,3.53-16.37,2.75-34.33,13.95-53.86,33.61l-5.33,5.14c0-.26.66-2.24,1.98-5.93,7.77-23.44,15.47-49.12,23.11-77.04,12.38-44.51,20.15-80.47,23.31-107.86,1.05-8.03,1.58-13.96,1.58-17.78,0-4.61-1.19-6.91-3.56-6.91s-3.62,1.45-3.75,4.35c-.13,1.19-.46,2.01-.99,2.47-.53.46-4.81,11.29-12.84,32.5-18.17,48.2-33.32,83.37-45.44,105.49-8.96,16.2-17.78,29.24-26.47,39.11-10.14,11.59-18.7,17.38-25.68,17.38-3.82,0-6.78-2.04-8.89-6.12-1.58-4.08-2.37-10.99-2.37-20.74,0-13.17,1.84-29.96,5.53-50.38,3.03-16.2,7.77-37.01,14.22-62.43,6.45-25.94,9.68-43,9.68-51.17,0-4.74-1.38-7.11-4.15-7.11-2.11,0-3.49,2.9-4.15,8.69-.79,7.24-3.43,19.63-7.9,37.14-7.24,28.32-11.79,46.82-13.63,55.51C3.16,240.12,0,263.17,0,279.63c0,7.77.66,13.83,1.98,18.17,3.56,10.93,9.48,16.4,17.78,16.4,6.58,0,14.09-3.95,22.52-11.85,16.46-15.93,33.12-42.47,49.98-79.61,10.4-23.18,22.65-54.06,36.74-92.65.66-1.58,1.05-2.37,1.19-2.37-3.03,23.58-9.95,55.25-20.74,95.02-13.96,51.36-26.14,89.88-36.55,115.57-1.32,3.29-2.9,6.12-4.74,8.49-7.9,10.27-14.36,20.48-19.36,30.62-2.24,4.74-3.36,8.56-3.36,11.46,0,1.98.53,3.36,1.58,4.15,1.05.79,2.11,1.19,3.16,1.19,8.3-1.71,18.9-19.09,31.81-52.15,1.05-2.5,1.88-4.51,2.47-6.02.59-1.51,1.88-3.46,3.85-5.83,9.35-10.4,19.42-19.59,30.22-27.56,10.8-7.97,19.52-12.91,26.18-14.82,1.11-.32,2.12-.62,3.06-.9-1.58,5.79-2.36,11.32-2.36,16.61,0,1.98.33,5.76.99,11.36.66,5.6,3.82,10.04,9.48,13.33,1.58.66,3.82.99,6.72.99,6.58,0,13.43-4.94,20.55-14.82,5-7.24,8.82-15.34,11.46-24.3,1.05-4.35,1.78-6.52,2.17-6.52.52,0,1.38.33,2.57.99,4.48,2.37,9.02,3.56,13.63,3.56,5.18,0,10.41-1.46,15.69-4.37-1.79,5.79-3.33,11.6-4.62,17.41-1.58,6.85-2.37,12.25-2.37,16.2,0,1.45.13,2.7.4,3.75,1.32,4.35,3.89,6.52,7.7,6.52,2.5,0,5.14-1.05,7.9-3.16,3.29-2.63,9.22-10.53,17.78-23.71,4.48-6.58,6.78-9.88,6.91-9.88-3.29,13.04-4.94,23.11-4.94,30.23s1.91,12.78,5.73,16.59c3.03,3.16,6.58,4.74,10.67,4.74,10.4,0,25.88-11.19,46.42-33.58,4.63-5.08,8.48-9.42,11.54-13.04-.29,1.28-.58,2.59-.88,3.95-4.08,17.38-6.12,27.59-6.12,30.62,0,.66.27,1.32.79,1.98.66,1.71,1.98,2.57,3.95,2.57,2.9,0,4.81-1.25,5.73-3.75,16.46-47.54,32.46-77.17,48-88.9,0,.66-1.38,5.47-4.15,14.42-3.69,11.46-5.53,19.1-5.53,22.92,0,6.59,3.03,9.88,9.09,9.88,2.9,0,7.57-.92,14.03-2.77,1.71-.46,3.22-.89,4.55-1.28-3.2,12.1-4.92,23.92-5.15,35.46.13,2.9.46,5.73.99,8.49,2.37,12.51,8.95,18.77,19.76,18.77,5.53,0,12.12-2.7,19.75-8.1,4.35-2.63,12.84-9.68,25.48-21.14,11.85-10.67,21.14-18.93,27.85-24.79,6.72-5.86,10.08-9.45,10.08-10.77,0-1.05-.46-1.58-1.38-1.58M57.78,372.98c-2.7,5.33-4.25,8-4.64,8,0-.92,1.78-4.61,5.33-11.06,1.84-3.42,2.96-5.14,3.36-5.14,0,.13-1.35,2.86-4.05,8.2"/>
    <path class="cls-2" d="M115.72,388.18v-15.23c0-.85-.12-1.53-.35-2.04-.24-.52-.78-.78-1.62-.78h-.56v-.56h12.01c.66,0,1.16.11,1.49.32s.57.5.71.85c.13.35.2.71.2,1.09v2.11h-.56c0-1.13-.31-1.95-.92-2.47-.61-.52-1.48-.78-2.61-.78h-5.25v7.33h7.61v1.13h-7.61v7.9h4.94c1.28,0,2.29-.24,3.03-.71.74-.47,1.33-1.27,1.76-2.4l.56.14-.99,2.68c-.15.43-.4.78-.75,1.03-.35.25-.8.38-1.37.38h-9.73ZM120.52,368.44l1.13-3.67h2.68l-2.68,3.67h-1.13Z"/>
    <path class="cls-2" d="M136.54,388.46l-4.37-10.29c-.45-1.05-.88-1.79-1.3-2.21-.41-.42-.96-.65-1.64-.69v-.56c.08,0,.22,0,.44-.03.22-.02.39-.03.52-.03.58,0,1.16.09,1.73.27.57.18,1.12.52,1.65,1.03.53.51,1,1.25,1.41,2.23l2.54,6.06,3.95-9.31h1.41l-5.78,13.54h-.56Z"/>
    <path class="cls-2" d="M150.35,388.46c-1.32,0-2.41-.31-3.29-.93-.87-.62-1.53-1.46-1.97-2.51-.44-1.05-.66-2.21-.66-3.47s.23-2.44.68-3.48c.45-1.04,1.1-1.88,1.95-2.5.85-.62,1.85-.93,3.02-.93,1.28,0,2.34.24,3.17.72.84.48,1.46,1.18,1.86,2.1.4.92.61,2.05.61,3.38l-.06,1.13h-8.54c0,1.54.33,2.82,1,3.83.67,1.02,1.6,1.52,2.81,1.52.92,0,1.69-.2,2.3-.59.61-.39,1.16-.95,1.65-1.66l.56.42c-.41.71-.88,1.29-1.4,1.72-.52.43-1.08.75-1.69.94-.61.2-1.27.3-1.99.3M147.11,380.85h5.92c0-1.64-.24-2.89-.73-3.77-.49-.87-1.23-1.31-2.23-1.31-.56,0-1.07.22-1.51.66-.44.44-.79,1.04-1.06,1.8-.26.76-.39,1.63-.39,2.61M149.34,373.41l1.13-3.67h2.68l-2.68,3.67h-1.13Z"/>
    <path class="cls-2" d="M159.38,388.18v-9.87c0-.85-.12-1.53-.35-2.04-.24-.52-.78-.78-1.62-.78h-.56v-.56h2.54c.71,0,1.25.1,1.62.3.37.2.62.47.78.83.38-.32.89-.63,1.55-.94.66-.31,1.41-.47,2.26-.47s1.57.14,2.3.42c.72.28,1.32.78,1.79,1.51.47.72.71,1.77.71,3.14v8.46h-2.54v-8.46c0-.94-.15-1.69-.45-2.24-.3-.55-.69-.95-1.16-1.2-.47-.24-.97-.37-1.49-.37-.56,0-1.09.15-1.57.45-.48.3-.9.65-1.25,1.04v10.77h-2.54Z"/>
    <path class="cls-2" d="M179.46,388.46c-1.32,0-2.41-.31-3.29-.93-.87-.62-1.53-1.46-1.97-2.51-.44-1.05-.66-2.21-.66-3.47s.23-2.44.68-3.48c.45-1.04,1.1-1.88,1.95-2.5.85-.62,1.85-.93,3.02-.93,1.28,0,2.34.24,3.17.72.84.48,1.46,1.18,1.86,2.1.4.92.61,2.05.61,3.38l-.06,1.13h-8.54c0,1.54.33,2.82,1,3.83.67,1.02,1.6,1.52,2.81,1.52.92,0,1.69-.2,2.3-.59.61-.39,1.16-.95,1.65-1.66l.56.42c-.41.71-.88,1.29-1.4,1.72-.52.43-1.08.75-1.69.94-.61.2-1.27.3-1.99.3M176.21,380.85h5.92c0-1.64-.24-2.89-.73-3.77-.49-.87-1.23-1.31-2.23-1.31-.56,0-1.07.22-1.51.66-.44.44-.79,1.04-1.06,1.8-.26.76-.39,1.63-.39,2.61"/>
    <path class="cls-2" d="M188.48,388.18v-9.87c0-.85-.12-1.53-.35-2.04-.24-.52-.78-.78-1.62-.78h-.56v-.56h2.54c.71,0,1.25.1,1.62.3.37.2.62.47.78.83h.14c.36-.36.85-.68,1.47-.97.62-.29,1.35-.44,2.2-.44.49,0,.94.06,1.37.17.42.11.81.31,1.16.59.35.28.63.69.86,1.21.49-.64,1.12-1.13,1.89-1.47.77-.34,1.55-.51,2.34-.51.71,0,1.37.14,1.96.42.59.28,1.07.78,1.44,1.51.37.72.55,1.77.55,3.14v8.46h-2.54v-8.46c0-1.41-.2-2.4-.59-2.96s-.95-.85-1.66-.85c-.55,0-1.11.2-1.69.59-.58.39-1.01.81-1.27,1.24.07.21.12.52.13.93,0,.41.01.76.01,1.04v8.46h-2.54v-8.46c0-1.41-.2-2.4-.59-2.96s-.95-.85-1.66-.85c-.56,0-1.09.15-1.57.45-.48.3-.9.65-1.25,1.04v10.77h-2.54Z"/>
    <path class="cls-2" d="M215.36,388.46c-1.32,0-2.41-.31-3.29-.93-.87-.62-1.53-1.46-1.97-2.51-.44-1.05-.66-2.21-.66-3.47s.23-2.44.68-3.48c.45-1.04,1.1-1.88,1.95-2.5.85-.62,1.85-.93,3.02-.93,1.28,0,2.34.24,3.17.72.84.48,1.46,1.18,1.86,2.1.4.92.61,2.05.61,3.38l-.06,1.13h-8.54c0,1.54.33,2.82,1,3.83.67,1.02,1.6,1.52,2.81,1.52.92,0,1.69-.2,2.3-.59.61-.39,1.16-.95,1.65-1.66l.56.42c-.41.71-.88,1.29-1.4,1.72-.52.43-1.08.75-1.69.94-.61.2-1.27.3-1.99.3M212.11,380.85h5.92c0-1.64-.24-2.89-.73-3.77-.49-.87-1.23-1.31-2.23-1.31-.56,0-1.07.22-1.51.66-.44.44-.79,1.04-1.06,1.8-.26.76-.39,1.63-.39,2.61"/>
    <path class="cls-2" d="M224.38,388.18v-9.87c0-.85-.12-1.53-.35-2.04-.24-.52-.78-.78-1.62-.78h-.56v-.56h2.54c.71,0,1.25.1,1.62.3.37.2.62.47.78.83.38-.32.89-.63,1.55-.94.66-.31,1.41-.47,2.26-.47s1.57.14,2.3.42c.72.28,1.32.78,1.79,1.51.47.72.71,1.77.71,3.14v8.46h-2.54v-8.46c0-.94-.15-1.69-.45-2.24-.3-.55-.69-.95-1.16-1.2-.47-.24-.97-.37-1.49-.37-.56,0-1.09.15-1.57.45-.48.3-.9.65-1.25,1.04v10.77h-2.54Z"/>
    <path class="cls-2" d="M243.22,388.46c-1,0-1.81-.29-2.44-.87-.63-.58-.94-1.51-.94-2.79v-8.74h-1.97v-1.13h1.97v-2.54l1.41-1.69h1.13v4.23h3.38v1.13h-3.38v8.74c0,.85.16,1.48.49,1.9.33.42.82.63,1.48.63.49,0,.89-.06,1.21-.17.32-.11.62-.24.9-.39l.28.56c-.3.23-.71.47-1.24.73-.53.26-1.29.39-2.28.39"/>
    <path class="cls-2" d="M253.26,388.46c-1.13,0-2.05-.1-2.76-.3-.71-.2-1.25-.47-1.61-.83-.36-.36-.56-.76-.62-1.21-.06-.45-.08-1.03-.08-1.75h.56c.15.92.54,1.65,1.18,2.17.64.53,1.56.79,2.76.79,1.07,0,1.86-.19,2.35-.56.5-.38.75-.85.75-1.41s-.21-1.04-.63-1.42c-.42-.39-1.06-.76-1.9-1.11l-1.69-.7c-1.07-.43-1.9-.94-2.5-1.54s-.89-1.35-.89-2.27c0-1.18.44-2.09,1.33-2.72.88-.63,1.99-.94,3.33-.94,1.07,0,1.95.1,2.65.3.7.2,1.22.47,1.58.83.36.36.56.76.62,1.21.06.45.08,1.03.08,1.75h-.56c-.15-.92-.54-1.65-1.17-2.17-.63-.53-1.51-.79-2.64-.79-.92,0-1.62.19-2.1.56-.48.38-.72.85-.72,1.41,0,.49.2.94.59,1.34.39.4.95.76,1.66,1.06l1.69.71c1.2.49,2.12,1.03,2.74,1.61.62.58.93,1.36.93,2.34,0,1.18-.47,2.09-1.41,2.72-.94.63-2.12.94-3.53.94"/>
    <path class="cls-2" d="M273.53,388.75c-1.32,0-2.41-.2-3.29-.59-.87-.39-1.53-.94-1.97-1.62-.44-.69-.66-1.45-.66-2.3,0-.79.19-1.48.58-2.09.39-.6.89-1.15,1.51-1.65.62-.5,1.27-1,1.95-1.51-.34-.32-.68-.67-1.03-1.06-.35-.39-.66-.81-.94-1.28-.28-.47-.51-.97-.68-1.51-.17-.54-.25-1.11-.25-1.73,0-1.35.46-2.43,1.37-3.22.91-.79,2.15-1.18,3.71-1.18s2.63.38,3.44,1.13c.81.75,1.21,1.69,1.21,2.82,0,.87-.19,1.63-.58,2.28-.39.66-.89,1.25-1.51,1.79-.62.54-1.3,1.06-2.03,1.57l5.67,6.2c.39-.43.75-.86,1.06-1.27.31-.41.58-.79.8-1.13.13-.21.25-.4.37-.58.11-.18.22-.36.31-.55l.56.42c-.08.19-.16.38-.27.58-.1.2-.22.4-.35.61-.21.36-.47.76-.79,1.21-.32.45-.69.9-1.1,1.35l2.51,2.74h-3.1l-1.13-1.21c-.45.34-.95.64-1.49.9-.55.26-1.14.47-1.78.63-.64.16-1.34.24-2.09.24M274.07,387.76c.86,0,1.65-.13,2.34-.4.7-.26,1.33-.61,1.89-1.04l-5.81-6.35c-.64.55-1.17,1.13-1.58,1.76-.41.63-.62,1.37-.62,2.21,0,1.26.31,2.21.94,2.85.63.64,1.57.96,2.83.96M273.48,377.61c.71-.6,1.33-1.25,1.83-1.93.51-.69.76-1.5.76-2.44,0-.81-.12-1.45-.35-1.92-.24-.47-.53-.81-.87-1.01-.35-.21-.69-.31-1.03-.31-.38,0-.75.11-1.11.32-.37.22-.67.57-.92,1.06-.24.49-.37,1.17-.37,2.03,0,.56.09,1.09.28,1.58.19.49.41.93.68,1.31.26.39.5.69.71.92.21.23.34.36.39.4"/>
    <path class="cls-2" d="M298.07,388.18v-17.48h-2.54c-1.13,0-2,.26-2.61.78-.61.52-.92,1.34-.92,2.47h-.56v-2.12c0-.38.07-.74.2-1.09.13-.35.37-.63.72-.85.35-.22.84-.32,1.48-.32h13.11v1.13h-6.34v17.48h-2.54Z"/>
    <path class="cls-2" d="M308.13,388.18v-9.87c0-.85-.12-1.53-.35-2.04-.24-.52-.78-.78-1.62-.78h-.28v-.56h2.26c.71,0,1.25.1,1.62.31.37.21.62.53.78.96.32-.32.79-.66,1.4-1.02.61-.36,1.32-.54,2.13-.54.28,0,.58.03.9.1.32.07.58.17.79.32.21.15.38.33.54.54.15.21.3.45.45.73l-1.13.85c-.21-.28-.51-.49-.92-.63-.4-.14-.85-.21-1.34-.21-.56,0-1.08.13-1.55.38-.47.25-.85.6-1.13,1.03v10.43h-2.54Z"/>
    <path class="cls-2" d="M322.26,388.46c-.39,0-.82-.06-1.28-.18-.46-.12-.91-.33-1.34-.63-.43-.3-.79-.71-1.06-1.21-.27-.51-.41-1.15-.41-1.92,0-1.03.33-1.83,1-2.4.67-.56,1.55-.96,2.65-1.2,1.1-.24,2.28-.35,3.54-.35h.85c0-1.32-.13-2.32-.39-3-.26-.69-.62-1.16-1.06-1.41-.44-.25-.94-.38-1.51-.38-.79,0-1.45.17-1.99.51-.54.34-.91.97-1.11,1.89h-1.27c0-.49.03-.94.08-1.37.06-.42.26-.81.62-1.17.36-.36.94-.61,1.75-.76.81-.15,1.64-.23,2.48-.23.64,0,1.25.08,1.85.23.59.15,1.12.43,1.58.83.46.41.83,1,1.1,1.78.27.78.41,1.81.41,3.09v7.61h-1.41l-.99-1.27h-.14c-.28.36-.74.71-1.38,1.04s-1.49.51-2.57.51M323.53,387.2c.7,0,1.25-.17,1.65-.52.4-.35.75-.74,1.03-1.17v-3.81h-.85c-1.41,0-2.51.26-3.31.78-.8.52-1.2,1.2-1.2,2.04,0,.92.27,1.6.82,2.03.54.43,1.17.65,1.86.65"/>
    <path class="cls-2" d="M333.09,388.18v-9.87c0-.85-.12-1.53-.35-2.04-.24-.52-.78-.78-1.62-.78h-.56v-.56h2.54c.66,0,1.17.08,1.54.25.37.17.62.5.78.99.15.49.23,1.2.23,2.14v9.87h-2.54ZM334.16,373.24c-.43,0-.8-.18-1.11-.54-.31-.36-.47-.78-.47-1.27,0-.39.12-.7.35-.93s.55-.34.94-.34c.43,0,.8.18,1.11.54.31.36.47.78.47,1.27,0,.39-.12.7-.35.93-.24.23-.55.34-.94.34"/>
    <path class="cls-2" d="M343.53,388.46c-1,0-1.81-.29-2.44-.87-.63-.58-.94-1.51-.94-2.79v-8.74h-1.97v-1.13h1.97v-2.54l1.41-1.69h1.13v4.23h3.38v1.13h-3.38v8.74c0,.85.16,1.48.49,1.9.33.42.82.63,1.48.63.49,0,.89-.06,1.21-.17.32-.11.62-.24.9-.39l.28.56c-.3.23-.71.47-1.24.73s-1.29.39-2.28.39"/>
    <path class="cls-2" d="M354.3,388.46c-1.32,0-2.41-.31-3.29-.93-.87-.62-1.53-1.46-1.97-2.51-.44-1.05-.66-2.21-.66-3.47s.23-2.44.68-3.48c.45-1.04,1.1-1.88,1.95-2.5.85-.62,1.85-.93,3.02-.93,1.28,0,2.34.24,3.17.72.84.48,1.46,1.18,1.86,2.1.4.92.61,2.05.61,3.38l-.06,1.13h-8.54c0,1.54.33,2.82,1,3.83.67,1.02,1.6,1.52,2.81,1.52.92,0,1.69-.2,2.3-.59.61-.39,1.16-.95,1.65-1.66l.56.42c-.41.71-.88,1.29-1.4,1.72-.52.43-1.08.75-1.69.94-.61.2-1.27.3-1.99.3M351.06,380.85h5.92c0-1.64-.24-2.89-.73-3.77-.49-.87-1.23-1.31-2.23-1.31-.56,0-1.07.22-1.51.66-.44.44-.79,1.04-1.06,1.8-.26.76-.39,1.63-.39,2.61"/>
    <path class="cls-2" d="M367.72,388.46c-.79,0-1.55-.14-2.28-.42-.73-.28-1.34-.79-1.8-1.52-.47-.73-.71-1.78-.71-3.13v-5.08c0-.85-.12-1.53-.35-2.04-.24-.52-.78-.78-1.62-.78h-.28v-.56h2.26c.66,0,1.17.08,1.54.25.37.17.62.5.78.99.15.49.23,1.2.23,2.14v5.08c0,.94.15,1.69.45,2.24.3.55.69.95,1.17,1.2.48.24.97.37,1.48.37.38,0,.73-.07,1.07-.21.34-.14.66-.32.96-.55.3-.23.56-.47.79-.73v-10.77h2.54v13.25h-1.41l-.99-1.13h-.14c-.36.36-.85.68-1.47.97-.62.29-1.35.44-2.2.44"/>
    <path class="cls-2" d="M378.21,388.18v-9.87c0-.85-.12-1.53-.35-2.04-.24-.52-.78-.78-1.62-.78h-.28v-.56h2.26c.71,0,1.25.1,1.62.31.37.21.62.53.77.96.32-.32.79-.66,1.4-1.02.61-.36,1.32-.54,2.13-.54.28,0,.58.03.9.1s.58.17.79.32c.21.15.38.33.54.54.15.21.3.45.45.73l-1.13.85c-.21-.28-.51-.49-.92-.63-.4-.14-.85-.21-1.34-.21-.56,0-1.08.13-1.55.38-.47.25-.85.6-1.13,1.03v10.43h-2.54Z"/>
  </g>
</svg>