<?xml version="1.0" encoding="UTF-8"?>
<svg id="Layer_1" data-name="Layer 1" xmlns="http://www.w3.org/2000/svg" viewBox="0 0 500 500">
  <defs>
    <style>
      .cls-1 {
        fill: #00aeef;
        stroke-width: 0px;
      }
    </style>
  </defs>
  <path class="cls-1" d="M150.83,220.2v.15s0,.05-.02.07c-.53.62-.91,1.34-1.15,2.18-.32,1.13-.7,2.23-.87,3.39-.38,2.57-.36,5.23.06,7.97.08.53.2,1.03.37,1.52.13.37.24.74.33,1.12.25.99.88,1.94,1.3,2.87.46,1.03,1.26,1.7,1.91,2.58.39.52.83.97,1.33,1.33.71.52,1.27,1.16,2,1.64,3.2,2.08,6.7,2.83,10.48,2.83,26.45,0,52.53,0,78.27,0,.11,0,.21.09.21.21v20.83c0,.07-.04.11-.11.11-25.32.01-50.64,0-75.98,0-3.67,0-6.27-.09-7.79-.26-7.2-.8-13.62-3.39-19.26-7.79-7.19-5.6-12.17-13.78-13.89-22.56-.86-4.39-1.01-9.15-.44-14.28.75-6.78,3.25-12.95,7.49-18.53,4.82-6.33,11.06-10.74,18.71-13.24,3.74-1.22,8.01-1.84,12.81-1.84,26.14-.02,52.23-.02,78.25,0,.13,0,.19.07.19.19v20.93c0,.11-.09.19-.19.19-25.37.02-51.18.01-77.42-.01-1.64,0-3.17.09-4.6.27-1.62.21-3.13.64-4.53,1.31-1.41.67-2.93,1.7-4.58,3.09-.85.72-1.15,1.61-1.98,2.32-.13.11-.23.26-.28.43-.08.28-.24.51-.48.69-.1.07-.14.17-.14.29"/>
  <path class="cls-1" d="M411.58,245.36c.42.27.86.52,1.33.75,2.53,1.25,5.6,1.74,8.57,1.74,26.05,0,52.13,0,78.22,0,.17,0,.3.13.3.3v20.74c0,.05-.04.09-.09.09-26.37.04-52.76.03-79.17,0-3.06,0-6.44-.32-9.4-1.06-9.68-2.41-17.33-7.79-22.96-16.14-1.09-1.61-2.05-3.36-2.88-5.25-1.83-4.12-2.88-8.3-3.16-12.55-.26-3.94-.25-8.08.44-12,1.19-6.73,4.02-12.76,8.49-18.06,1.66-1.96,3.54-3.76,5.66-5.38,2.58-1.98,5.18-3.55,7.79-4.72,2.35-1.05,4.98-1.89,7.88-2.52,2.47-.53,5.49-.81,9.06-.81,24.74-.02,50.81-.02,78.2,0,.07,0,.12.05.12.12v20.99c.01.14-.06.2-.19.2-25.6,0-51.75,0-78.47,0-.7,0-1.4.03-2.12.09-1,.09-1.96.13-2.93.44-1.11.36-2.4.55-3.37,1.18-.99.64-2.07,1.05-2.92,1.86-.65.61-1.41,1.03-1.93,1.76-.64.89-1.48,1.56-1.98,2.56-.24.48-.49.96-.77,1.44-.26.46-.48.95-.67,1.46-.47,1.3-.74,2.2-.83,2.72-.31,1.95-.43,3.92-.35,5.92.08,2.06.48,4.03,1.19,5.89,1.27,3.32,3.58,6.06,6.92,8.24"/>
  <path class="cls-1" d="M47.91,212H.12c-.07,0-.12-.05-.12-.12v-20.92c0-.07.05-.12.12-.12h117.06c.07,0,.12.05.12.12v20.92c0,.07-.05.12-.11.12h-47.79c-.07,0-.12.05-.12.12v56.75c0,.07-.05.12-.12.12h-21c-.07,0-.12-.05-.12-.12v-56.75c0-.07-.05-.12-.12-.12"/>
  <path class="cls-1" d="M350.65,246.5c.19.19.28.15.28-.12v-55.43c0-.11.09-.19.2-.19h20.94c.11,0,.2.09.2.2v77.84c0,.13-.07.19-.2.19h-26.51c-.49,0-.98-.17-1.36-.48-9.45-7.72-18.9-15.42-28.36-23.09-1.16-.94-2.33-1.91-3.5-2.9-.28-.24-.59-.47-.9-.69-.73-.49-1.21-1.15-1.99-1.61-.53-.31-.96-.83-1.45-1.23-4.9-3.97-9.72-7.88-14.45-11.75-1.56-1.27-3.14-2.58-4.77-3.96-.14-.11-.37-.15-.52-.28-1.24-1.09-2.53-2.15-3.87-3.17-.44-.33-.85-.69-1.22-1.08-.53-.54-1.18-.73-1.68-1.28-.46-.5-.98-.93-1.57-1.31-.62-.4-.98-1.01-1.61-1.36-.72-.4-1.2-.97-1.8-1.5-.12-.11-.3-.02-.3.14v55.35c0,.13-.06.19-.2.19h-20.85c-.13,0-.2-.06-.2-.19v-77.84c0-.13.07-.19.2-.19h26.97c.14,0,.27.05.38.14.47.39.95.78,1.43,1.17,4.57,3.71,9.41,7.63,14.5,11.79,6.55,5.34,12.88,10.48,18.98,15.44,1.18.96,2.35,1.94,3.52,2.94.58.5,1.22.83,1.77,1.36.21.21.44.41.67.6,9.39,7.63,18.37,14.97,26.94,22.01.11.09.21.19.32.29"/>
  <path class="cls-1" d="M62.69,302.03v7.21c0,.07-.03.11-.11.11h-1.7c-.07,0-.11-.03-.11-.11v-9.78c0-.84,1.03-1.26,1.62-.66l6.83,6.95c.26.26.39.21.39-.16v-6.88c0-.07.03-.11.11-.11h1.7c.08-.01.12.03.12.1v9.85c-.01.53-.27.84-.79.93-.21.04-.47-.02-.78-.18-.17-.08-.31-.2-.44-.33-2.17-2.33-4.37-4.67-6.58-7.04-.16-.17-.23-.14-.23.09"/>
  <path class="cls-1" d="M155.79,302.02v7.23c0,.08-.03.12-.11.12l-1.7-.02c-.06,0-.11-.05-.11-.11l.03-9.87c0-.86,1.06-1.29,1.66-.66l6.7,7.06c.23.25.35.2.35-.14v-6.71c0-.22.11-.32.33-.32h1.43c.18.02.27.11.27.29v9.63c0,.89-1.08,1.32-1.69.69l-7.02-7.23c-.08-.08-.12-.06-.12.05"/>
  <path class="cls-1" d="M93.12,305.93v-7.23c-.01-.08.03-.12.11-.11l1.69.02c.07,0,.1.03.1.1v8.94c0,2.08-.72,2.38-2.18.89l-6.36-6.5c-.12-.12-.18-.1-.18.07v7.12c0,.07-.03.1-.1.11h-1.7c-.07,0-.11-.03-.11-.1v-9.79c0-.76.86-1.2,1.47-.75.69.49,1.41,1.2,2.17,2.12.86,1.05,2.5,2.77,4.93,5.17.11.11.16.09.16-.06"/>
  <path class="cls-1" d="M269.36,305.99c-.06-2.33-.07-4.77-.05-7.32,0-.06.03-.1.1-.09l1.7.03c.07,0,.11.04.11.11,0,3.23,0,6.51,0,9.85,0,.68-.64,1.09-1.27.84-.92-.37-1.31-1.2-1.95-1.89-1.82-1.92-3.59-3.74-5.32-5.47-.11-.11-.17-.09-.17.07v7.01c0,.14-.07.21-.21.21h-1.62c-.12,0-.19-.06-.19-.19,0-3.18,0-6.29,0-9.3,0-.66.3-1.11.9-1.34.1-.04.2-.04.31,0,.91.36,1.14,1.02,1.76,1.67,1.99,2.07,3.9,4.03,5.75,5.87.11.11.16.08.15-.07"/>
  <path class="cls-1" d="M384.31,302.9c0-1.36-1.11-2.46-2.47-2.46h-2.8c-1.36,0-2.46,1.11-2.46,2.47v2.17c0,1.36,1.11,2.46,2.47,2.46h2.8c1.36,0,2.46-1.11,2.46-2.47v-2.17ZM386.21,305.11c0,2.45-2,4.43-4.45,4.42h-2.67c-2.45-.02-4.43-2.01-4.42-4.46v-2.14c.02-2.45,2.01-4.43,4.46-4.42h2.67c2.45.02,4.43,2.01,4.42,4.46v2.14"/>
  <path class="cls-1" d="M393.27,302.38v6.76c0,.12-.09.21-.21.21h-1.6c-.07,0-.11-.04-.11-.11l.03-9.96c0-.23.11-.45.31-.57.52-.34,1.01-.28,1.46.19,1.58,1.61,3.22,3.27,4.7,4.99.62.71,1.29,1.37,2,1.97.09.08.23.01.23-.11v-6.83c0-.22.11-.32.32-.32h1.38c.18,0,.32.14.32.32v9.59c0,.88-1.06,1.31-1.68.69l-6.82-6.95c-.22-.23-.33-.18-.33.14"/>
  <path class="cls-1" d="M440.73,307.44h7.62s.07.02.06.06l-.04,1.75c0,.06-.05.1-.1.1h-8.72c-.64,0-.96-.32-.96-.96v-9.7c0-.06.06-.12.12-.11l1.69.02c.07,0,.11.03.11.11v8.51c0,.14.07.21.21.21"/>
  <path class="cls-1" d="M454.86,300.6l-4.08.04c-.07,0-.13-.06-.14-.13l-.05-1.77c0-.08.06-.14.14-.14l10.3.02c.07,0,.14.06.14.14l-.03,1.73c0,.07-.06.13-.13.13l-3.96.03c-.08,0-.14.06-.14.14v8.44c0,.08-.06.14-.14.14h-1.65c-.08,0-.14-.06-.14-.14v-8.48c0-.07-.06-.14-.13-.14"/>
  <path class="cls-1" d="M475.44,302.02c-.16-.16-.24-.13-.24.1v7.12c0,.07-.03.11-.11.11h-1.8c-.06,0-.11-.06-.11-.12,0-3.01,0-6.24,0-9.68,0-.6.65-.95,1.15-1.04.12-.03.25.02.34.11l7.02,7.18c.22.22.32.17.32-.13v-6.95c0-.07.03-.11.11-.11h1.69c.08-.02.11.02.11.1v10.12c0,.3-.22.57-.51.63-.64.13-1.23-.17-1.66-.65-2.17-2.4-4.27-4.66-6.32-6.78"/>
  <path class="cls-1" d="M12.68,300.76v8.44c0,.08-.06.14-.14.14h-1.75c-.08,0-.14-.06-.14-.14v-8.48c0-.08-.06-.14-.13-.14l-4.01.06c-.08,0-.14-.07-.14-.15l.06-1.76c0-.08.06-.14.14-.14h10.21c.08,0,.14.07.14.14l.03,1.74c0,.08-.06.14-.14.14h-3.98c-.08,0-.14.06-.14.13"/>
  <path class="cls-1" d="M28.83,305.88s-.06.06-.03.09l3.5,3.06c.25.22.2.32-.12.32h-2.24c-.29,0-.57-.12-.77-.33-1.12-1.17-2.28-2.19-3.47-3.06-.12-.09-.25-.13-.4-.13h-.83c-.14,0-.21-.06-.22-.2v-1.49c0-.14.07-.22.22-.22,1.26,0,2.56,0,3.92.02.64,0,1.07-.34,1.61-.6.15-.08.23-.2.24-.37l.12-2.11c0-.16-.07-.24-.23-.24h-6.41c-.14,0-.21.07-.21.21v8.41c0,.06-.05.11-.11.11h-1.81c-.06,0-.11-.05-.11-.11v-9.47c0-.64.52-1.16,1.16-1.17,2.4-.02,4.72-.01,6.95.02,1.21.02,2.46.71,2.6,2.03.1.96.08,1.77-.06,2.43-.33,1.53-1.44,2.45-3.32,2.78"/>
  <path class="cls-1" d="M45.89,300.57c-1.61.15-4.05-.34-5.35.66-1.05.8-1.5,1.9-1.35,3.28.02.18.12.27.3.27h6.39c.07,0,.11-.03.11-.1v-4.02c0-.06-.03-.09-.09-.09M45.77,306.69h-6.27c-.21,0-.32.11-.32.31v2.24c-.01.06-.05.1-.11.1h-1.73c-.09.01-.14-.03-.15-.13-.11-2.69-.06-4.89.16-6.63.07-.57.34-1.06.78-1.46.12-.11.21-.25.26-.4.24-.81.84-.83,1.41-1.29.22-.18.49-.32.79-.42.62-.21,1.23-.33,1.83-.36,1.44-.07,2.97-.07,4.6.01.49.03.88.43.88.92v9.67c0,.06-.05.11-.11.11h-1.7c-.07,0-.11-.03-.11-.11v-2.34c0-.14-.07-.21-.21-.21"/>
  <rect class="cls-1" x="53.37" y="298.63" width="1.96" height="10.73" rx=".14" ry=".14"/>
  <rect class="cls-1" x="76.95" y="298.62" width="1.95" height="10.73" rx=".11" ry=".11"/>
  <path class="cls-1" d="M108.76,307.44c.29,0,.43-.14.43-.43v-1.7c0-.21-.11-.32-.32-.32h-4.78c-.07,0-.11-.03-.11-.1v-1.71c0-.07.03-.11.1-.11h6.07c.53,0,.96.43.96.96v4.27c0,.59-.49,1.07-1.08,1.06-1.95-.04-4.03-.03-6.23.03-.92.02-1.65-.12-2.2-.44-.77-.44-1.17-1.23-1.2-2.36-.05-1.77-.06-3.55-.03-5.37,0-.12.03-.23.09-.33.17-.31.29-.65.33-1,.02-.12.07-.23.16-.32.58-.59,1.32-.9,2.2-.92,2.57-.06,5.11-.06,7.63-.03.16,0,.23.08.23.23v1.56c0,.14-.07.21-.21.21h-7.55c-.47,0-.85.38-.85.85v5.43c0,.29.24.53.53.53h5.85Z"/>
  <path class="cls-1" d="M126.31,301.21v5.59c0,.35.29.64.64.64l7.05-.02c.06,0,.09.03.09.09l-.03,1.72c0,.08-.04.12-.12.12-2.09-.01-4.25,0-6.48.01-.71,0-1.3-.13-1.77-.4-.83-.47-1.33-1.49-1.31-2.46.03-1.62.03-3.34.01-5.18-.01-1.74,1.24-2.72,2.91-2.72,2.17,0,4.36,0,6.57-.02.14,0,.22.07.22.22v1.6c-.01.14-.08.21-.22.21h-6.97c-.39,0-.58.2-.58.59"/>
  <path class="cls-1" d="M141,300.95v5.75c0,.41.33.75.74.75h6.95c.06,0,.1.03.1.09l-.03,1.71c0,.08-.05.12-.13.12-2.02-.02-4.1-.02-6.22,0-1.85.02-3.26-.67-3.29-2.7-.04-2.32-.05-4.69-.03-7.1,0-.53.44-.96.97-.96h8.39c.21,0,.32.11.32.32v1.28c0,.23-.19.43-.43.43h-7.02c-.21,0-.32.11-.32.32"/>
  <path class="cls-1" d="M173.33,300.6l-4.01.05c-.08,0-.14-.06-.14-.14v-1.77c0-.07.07-.13.14-.13h10.27c.07,0,.13.06.13.13v1.77c0,.07-.06.13-.13.13h-3.99c-.07,0-.13.06-.13.13v8.44c0,.07-.07.13-.14.13l-1.76.02c-.07,0-.13-.06-.13-.13l.03-8.5c0-.07-.06-.13-.13-.13"/>
  <path class="cls-1" d="M186.22,300.84v5.64c0,.53.43.96.95.96h6.81c.06-.01.12.04.12.11l-.02,1.69c0,.09-.05.13-.14.13-1.99-.02-4.21-.01-6.66,0-1.73.01-2.9-.95-2.95-2.76-.06-2.26-.06-4.58-.02-6.98.01-.57.48-1.02,1.05-1.02h8.51c.14,0,.22.07.22.21v1.6c-.01.14-.08.21-.22.21h-7.45c-.11,0-.21.1-.21.22"/>
  <path class="cls-1" d="M206.42,305.94c1.2,1.17,2.37,2.19,3.52,3.07.3.23.26.34-.12.34h-2.13c-.28,0-.55-.1-.77-.28-1.03-.85-2.06-1.77-3.09-2.77-.46-.45-1.01-.6-1.65-.44-.16.04-.31-.08-.32-.24v-1.38c0-.21.1-.32.32-.32h4.16c.77,0,1.25-.37,1.42-1.13.1-.45.17-.94.2-1.47.03-.46-.19-.7-.66-.7h-6.09c-.14,0-.21.07-.21.21v8.41c0,.06-.05.11-.11.11h-1.7c-.07,0-.11-.03-.11-.11v-9.6c0-.54.43-.98.97-1,2.54-.07,4.93-.07,7.17,0,2.43.07,2.77,1.95,2.54,3.95-.06.49-.19.95-.4,1.38-.58,1.18-1.54,1.78-2.89,1.8-.16,0-.18.06-.07.17"/>
  <path class="cls-1" d="M225.05,300.84v5.86c0,.41.34.75.75.74l6.91-.02c.08,0,.12.04.12.12l-.02,1.69c0,.08-.04.12-.12.12-1.94,0-4.27,0-6.97,0-1.81,0-2.68-1.8-2.69-3.35-.02-2.19,0-4.32.03-6.38,0-.57.47-1.02,1.03-1.02h8.52c.14,0,.22.07.22.21v1.6c-.01.11-.1.2-.22.2h-7.34c-.14,0-.21.08-.21.22"/>
  <path class="cls-1" d="M240.07,307.45l7.55-.02c.07,0,.1.03.1.1l-.02,1.73c0,.07-.03.1-.1.1h-8.93c-.41,0-.74-.33-.74-.74v-9.68c0-.18.14-.32.32-.32h1.38c.12,0,.21.1.21.22v8.4c0,.15.08.23.23.23"/>
  <path class="cls-1" d="M280.42,300.9c-1.47.68-2.11,1.89-1.93,3.63.02.16.11.24.27.24h6.41c.06,0,.11-.05.11-.11v-3.93c0-.06-.03-.1-.1-.1-1.29-.03-3.65-.24-4.76.27M278.47,307.01v2.23c0,.07-.03.11-.11.11h-1.79c-.09,0-.13-.04-.13-.13.01-1.43.02-2.98,0-4.67,0-1.39.29-2.54.89-3.45.72-1.09,1.69-1.82,2.9-2.19,1.73-.53,3.83-.27,5.69-.29.7,0,1.27.56,1.27,1.26v9.27c0,.14-.07.21-.21.21h-1.49c-.14,0-.22-.07-.22-.21v-2.24c0-.14-.07-.21-.21-.21h-6.28c-.21,0-.32.11-.32.32"/>
  <path class="cls-1" d="M299.75,306.42v-7.61c0-.14.07-.22.21-.22h1.37c.2,0,.37.17.36.37-.05,2.21-.05,4.62.01,7.24.04,1.88-1.06,3.18-3.04,3.15-2.15-.03-4.37-.03-6.68,0-.14,0-.22-.07-.21-.21v-1.44c.01-.17.1-.26.27-.26h6.7c.56,0,1.01-.46,1.01-1.01"/>
  <rect class="cls-1" x="307.09" y="298.63" width="1.94" height="10.73" rx=".14" ry=".14"/>
  <path class="cls-1" d="M316.63,303.08h6.45c.1,0,.18-.09.18-.19v-4.12c0-.1.08-.18.18-.18h1.66c.1.01.18.09.18.19v10.38c0,.1-.08.18-.17.18h-1.67c-.1.01-.18-.07-.18-.17v-4c0-.1-.08-.18-.17-.18l-6.46-.02c-.1,0-.18.08-.18.18v4.01c0,.1-.07.18-.17.18h-1.56c-.1,0-.18-.08-.18-.17v-10.39c0-.1.09-.18.18-.18h1.55c.1,0,.18.09.18.18v4.11c0,.1.08.18.17.18"/>
  <path class="cls-1" d="M363.1,300.64c-.53,0-.79.27-.79.8v5.15c0,.47.38.85.85.85h6.82c.08,0,.12.04.12.12l-.04,1.69c0,.08-.04.12-.12.12-2.06-.03-4.13-.03-6.18.02-1.95.04-3.37-.75-3.36-2.92,0-1.66,0-3.4-.02-5.25-.01-1.72,1.55-2.61,3.09-2.6,2.17.01,4.26.01,6.26,0,.23,0,.35.11.34.34v1.31c0,.24-.13.37-.37.37h-6.61Z"/>
  <path class="cls-1" d="M409.73,302.76c.33.12.6.31.97.31,1.37-.01,2.73,0,4.09.03,2.35.06,3.19,1.83,2.91,3.95-.17,1.3-1.66,2.3-2.83,2.3-2.57.01-5.09.01-7.55,0-.06,0-.11-.05-.11-.11v-1.69c0-.06.06-.11.11-.11h6.97c.79,0,1.3-.37,1.53-1.12.03-.08.04-.17.04-.25,0-.64-.31-.98-.94-1.02-1.31-.08-2.73-.09-4.27-.04-1.05.03-1.92-.28-2.61-.93-.6-.57-.89-1.32-.88-2.26.03-2.38,1.94-3.28,4.01-3.23,1.95.04,3.76.05,5.41.01.14,0,.21.06.21.2v1.7c0,.09-.05.13-.14.13-1.93,0-4.08,0-6.44,0-1.14,0-1.69,1.69-.48,2.14"/>
  <path class="cls-1" d="M426.17,307.03c.29.03.55.12.78.29.11.08.24.11.37.11h3.51c.21,0,.32-.11.32-.32v-8.3c0-.12.09-.21.21-.21h1.38c.21,0,.32.11.32.32v9.59c0,.47-.39.85-.86.84-2.08-.06-4.69.3-6.56-.39-1.34-.49-2.26-1.42-2.77-2.77-.36-.96-.52-2.16-.46-3.59.05-1.33.05-2.62,0-3.86,0-.09.04-.14.13-.14h1.69c.06-.02.11.04.11.1-.01,1.63,0,3.27,0,4.9.02,1.58.5,2.68,1.44,3.29.11.08.24.12.38.13"/>
  <rect class="cls-1" x="465.83" y="298.63" width="1.93" height="10.73" rx=".11" ry=".11"/>
  <path class="cls-1" d="M497.97,304.99h-5c-.07,0-.1-.03-.11-.1l-.03-1.69c0-.06.06-.12.12-.12h6.24c.44,0,.8.36.8.8v4.53c0,.54-.43.97-.97.96-1.97-.04-3.95-.03-5.93.03-2.11.06-3.8-.5-3.83-2.87-.03-1.85-.01-3.57.04-5.18.07-1.98,1.62-2.77,3.4-2.75,2.42.02,4.71.03,6.88.01.21,0,.32.11.32.32v1.28c0,.29-.14.43-.43.43h-7.6c-.38,0-.69.31-.69.69v5.16c0,.53.42.96.95.96h5.85c.07,0,.11-.03.11-.11v-2.23c0-.07-.03-.11-.11-.11"/>
  <path class="cls-1" d="M346.53,306.75c-.13.3-.18.61-.15.92.01.14-.03.26-.14.36-.64.62-1.1,1.23-2.1,1.25-1.2.02-2.27-.01-3.23-.09-2.12-.18-2.36-2.27-2.2-4.01.01-.17.08-.31.2-.43.29-.29.33-.63.14-1.01-.17-.34-.28-.71-.32-1.1-.12-1.16.2-1.99.97-2.49.56-.35,1.28-.52,2.18-.49,1.32.04,2.55.05,3.67,0,.11,0,.16.05.16.16v1.4c0,.11-.06.16-.16.16h-4.24c-.6,0-.88.29-.82.89l.02.17c.05.51.33.76.84.75l2.41-.03c.11,0,.16.05.16.16l-.03,1.32c0,.15-.08.22-.22.22-.69.01-1.39.03-2.1.05-1.47.05-1.23,1.27-.94,2.21.04.14.16.24.3.27.99.18,1.96.22,2.92.1.51-.06.91-.46.98-.96.17-1.2.97-1.74,2.4-1.63.12.01.18.08.18.2v1.29c0,.15-.07.22-.22.21l-.39-.02c-.13,0-.23.05-.28.17"/>
  <path class="cls-1" d="M141.98,303.07h5.81c.07,0,.12.06.12.12v1.67c0,.07-.06.12-.12.12h-5.81c-.07,0-.12-.06-.12-.12v-1.67c0-.07.06-.12.12-.12Z"/>
  <rect class="cls-1" x="187.07" y="303.08" width="6.07" height="1.92" rx=".17" ry=".17"/>
  <path class="cls-1" d="M226.02,303.07h5.72c.12,0,.23.1.23.23v1.46c0,.12-.1.23-.23.23h-5.72c-.12,0-.23-.1-.23-.23v-1.46c0-.12.1-.23.23-.23Z"/>
</svg>